/* XPM */
static char *_7cb3d7a850c470e82bc20dfb4a2e1385hmUFWBHDbmgtwDL[] = {
/* columns rows colors chars-per-pixel */
"64 64 211 2 ",
"   c #0D0D0D",
".  c #10100F",
"X  c #131313",
"o  c #171816",
"O  c #1A1A17",
"+  c #1C1C1B",
"@  c #1F201E",
"#  c #22231D",
"$  c #242523",
"%  c #2A2B25",
"&  c #2B2D2B",
"*  c #272825",
"=  c #2E302D",
"-  c #253028",
";  c #33342B",
":  c #36382C",
">  c #333533",
",  c #353936",
"<  c #393C35",
"1  c #373738",
"2  c #373B3A",
"3  c #3A3D3C",
"4  c #3B4134",
"5  c #3D413C",
"6  c #42443D",
"7  c #454A34",
"8  c #56563C",
"9  c #3C3D41",
"0  c #463C4A",
"q  c #3D4343",
"w  c #3F4846",
"e  c #3F4848",
"r  c #414643",
"t  c #434A45",
"y  c #4C4D46",
"u  c #42464A",
"i  c #444C4C",
"p  c #4C4D4A",
"a  c #4A5144",
"s  c #46514D",
"d  c #4A524C",
"f  c #4E594F",
"g  c #465146",
"h  c #54584A",
"j  c #464E51",
"k  c #4A4E52",
"l  c #474F5E",
"z  c #504F58",
"x  c #465252",
"c  c #4A5454",
"v  c #4C5956",
"b  c #4C5659",
"n  c #4D5B5B",
"m  c #515D54",
"M  c #50565D",
"N  c #515C5C",
"B  c #595755",
"V  c #57614E",
"C  c #4E615E",
"Z  c #536156",
"A  c #53635D",
"S  c #59655C",
"D  c #55695F",
"F  c #5B6A5D",
"G  c #5D715F",
"H  c #62715C",
"J  c #607055",
"K  c #696A5A",
"L  c #4E5F60",
"P  c #535D62",
"I  c #595D65",
"U  c #4E6362",
"Y  c #4F686A",
"T  c #536563",
"R  c #596464",
"E  c #556A65",
"W  c #5A6C64",
"Q  c #556669",
"!  c #5A656A",
"~  c #566C6A",
"^  c #596C6B",
"/  c #5C7166",
"(  c #57716C",
")  c #5C736C",
"_  c #5D796E",
"`  c #5C6D71",
"'  c #596B71",
"]  c #557372",
"[  c #5C7472",
"{  c #5D7A74",
"}  c #5D7C7A",
"|  c #587977",
" . c #676A67",
".. c #60756B",
"X. c #637A6D",
"o. c #677268",
"O. c #717165",
"+. c #73736D",
"@. c #78786E",
"#. c #767B6B",
"$. c #616D72",
"%. c #617573",
"&. c #617C74",
"*. c #617D7A",
"=. c #697975",
"-. c #747573",
";. c #767A75",
":. c #7B7C74",
">. c #7B7C7C",
",. c #77767B",
"<. c #5F8275",
"1. c #5E827B",
"2. c #6B826E",
"3. c #6F8B6F",
"4. c #728B6D",
"5. c #718869",
"6. c #648375",
"7. c #6A8574",
"8. c #668A77",
"9. c #6C8A74",
"0. c #64847B",
"q. c #6A867B",
"w. c #658B7D",
"e. c #6A8C7C",
"r. c #728B75",
"t. c #70877B",
"y. c #7D807D",
"u. c #728E7B",
"i. c #708473",
"p. c #66917E",
"a. c #6B917D",
"s. c #6A9277",
"d. c #71927B",
"f. c #898C7C",
"g. c #84857D",
"h. c #8F907D",
"j. c #637F80",
"k. c #7E7F80",
"l. c #5E8281",
"z. c #5E8F84",
"x. c #5E948F",
"c. c #5F8B90",
"v. c #5F9696",
"b. c #638581",
"n. c #668D82",
"m. c #6A8D82",
"M. c #658E8A",
"N. c #698B86",
"B. c #708E81",
"V. c #669284",
"C. c #699182",
"Z. c #699185",
"A. c #6B9283",
"S. c #6B9986",
"D. c #65938A",
"F. c #6A9489",
"G. c #679889",
"H. c #6D9A8C",
"J. c #719382",
"K. c #7A9B86",
"L. c #749B8C",
"P. c #7B9D8B",
"I. c #769789",
"U. c #669590",
"Y. c #6B9A92",
"T. c #689691",
"R. c #749E92",
"E. c #7A9F93",
"W. c #848682",
"Q. c #858883",
"!. c #8B8B83",
"~. c #8C8C8C",
"^. c #87878D",
"/. c #8F908C",
"(. c #829F8C",
"). c #8F958A",
"_. c #919284",
"`. c #94948B",
"'. c #949A8A",
"]. c #9A9A8D",
"[. c #959692",
"{. c #969993",
"}. c #9A9B93",
"|. c #9B9B9B",
" X c #989798",
".X c #928A92",
"XX c #87A18D",
"oX c #88A395",
"OX c #96A796",
"+X c #A3A496",
"@X c #A7A99B",
"#X c #AAAC9D",
"$X c #A2A79C",
"%X c #B6B79A",
"&X c #9897A7",
"*X c #A398A3",
"=X c #9CA8A5",
"-X c #ABADA3",
";X c #A6A9A3",
":X c #AFB0A4",
">X c #AEB0A8",
",X c #B2B2A6",
"<X c #B5B6AB",
"1X c #B7B9AB",
"2X c #BBBBAC",
"3X c #B8BDA6",
"4X c #B5B4B4",
"5X c #BCBCB2",
"6X c #BEBEB9",
"7X c #C0BDB1",
"8X c #C2C2B5",
/* pixels */
" Xf j ! W ( / ! T ! Q ~ ! ` ! ^ _ ^ ( ) ~ ~ ^ ~ ^ I W R I ^ 2X5X4X3XR ^ Z ( ~ ~ ^ ^ ~ ~ ^ ~ E ^ ] ^ ^ T ~ [ Q W ~ { _ W *.[ 7X].",
"d C T F.w.m.m.Z.F.m.0.6.6.{ X.( ! Q ! ^ ` ^ ) ! ~ &.*.{ W *.X.1X6XW R.Y.;XoXQ ^ ^ ^ ' Q T ! ^ Q ^ I A ^ ^ m.! [ m.) { [ ! ^ c '.",
"k n.q.F.A.w.S.C.e.w.C.n.w.C.n.A.C.m.m.m.m.m.C.n.0.X.0.D.*.6.0.7X^ K.D.e.a.V.w.Y.L.e.e.A.w.m.A.p.A.q.F.W n.C.m.e.m.n.%.[ { T b 7X",
"z C.9.m.e.F.8.q.e.e.p.e.n.0.Z.b.n.n.C.C.C.e.V.A.V...a.D.b.m._ 4XE K.D.D.L.a.9.7.C.C.C.w.XXV.n.C.D.m.A.w.e.m.m.{ e.U./ { *.! b 2X",
"N n.9.C.8.n.6.e.F.n.m.m.{ e.&.&.0.0.q.m.q.n.e.n.m.m.n.w.X.1.X.2X! m.V.C.e.A.Z.F.q.A.e.A.m.m.m.n.e.A.) n.m.n.p.Z.e.n...} } ! Q 2X",
"b n.e.M.m.b.*.0.m.Z.{ e.{ 6.&.%.0.0.1.w.C.C.C.n.D.8.n.D.X.) 0.2X! e.D.m.p.l.w.F.C.n.w.w.w.C.w.m.q.e.1.q.Z...D.m.C.t.q.l.%.R { 2X",
"c N.*.*.{ 1.{ %.&._ 6.{ *.{ *.0.6.*.{ 0.0.w.m.q.M.e.W 1.%.P &.5XR H.q./ n.%...n.q.{ *.m.0.b.{ { { n.[ *...! [ $.1.W %.b./ 0.Q 1X",
"g 6.%.1.7.X._ { { *._ *.%.&./ ^ { { *.*.{ { { *._ } ! W ! $.F 4X! 9.m.n.e.{ w.&.&.%.m.) &.&.) [ _ %.{ [ { _ { { } ~ { } { { ! <X",
"s } { / _ &.T *.{ ( ) { { v X       X X + > T ] / b.^ T ^ ^ R 1X~ 0.) e.) [ w.) } %.) _ &.) [ [ ~ ^ ~ [ | [ ( { ) [ { / ) | ! _.",
"r *.{ ( { { A A A D E } { n .                           . . X X X X X X X   X X X X . .   + A ^ T Q ^ ~ [ ^ ) ^ [ ^ *.( ~ ] Q _.",
"r T [ *.} | { { Q ^ Q Q ) _ *     O X X                                                   X v ~ n Q ~ A N ~ Q T n ^ ^ ~ ~ ] x _.",
"c ~ } U D [ U T N n Q E ( [ +     T n E ! E x > & & + X X X X o . X X . X X . X . . X X @ 3 v v P Q C b x b n P n b T v A n Q.f.",
"t v A A R %.Y ~ T L L Q ^ U +     r c b T ! ~ ^ Q T T T T c i 1XN E R C E v A A T n L ~ ~ ! b n P t t u s 3 r c b v b n b b s _.",
"w C Q [ T n n f n m i t r t o     r u u i c v v A U P ' ! s t 2XT W ~ R n ^ T c b b n b n n c i n 3 , x c 3 3 b v x b b c c q /.",
"-XQ.n C N i x 6 s c j j c e X     6 < 6 k b c 3 : c u j c r W.+.^.P T T P A n M b M M m b N P b i , = j j 3 > x L b A n P u u ~.",
"}.'.}.}.).+X5X1X5X5X5X5X5X5X*     [.}.|.}.[.|.<X2X5X'.[.}.{.-.-.=._.7X1X5X1X}.[.}.].'.2X5X2X2X2X5X2X5X<X8X2X2X2X7X2X2X5X; ; }.).",
"R ( ^ A ! c ; y {.! I [ I T @     ~ ! ^ ~ ~ ! ! W ! ! ~ _ w.m.C.[ ^ ^ [ W ! ! |.^ T e.m.^ E R ! m.C.m.q.~ ^ ! ! ~ _ ~ { q.q._ ~ ",
"q.D.n.) ( ^ ! 1 ].E / R.R.E.$     m.C.C.C.C.V.C.p.A.e.e.e.p.C.w.n.q.m.{ m.) [ `.~ Z.C.N.D.e.~ D.n.C.D.A.A.q.{ w.m.m.m.H.F.D.m.N.",
"V.D.C.F.n.[ ! R  X! n.F.w.L.#   . e.e.a.e.e.p.A.G.H.Z.F.Z.C.D.C.p.e.G.R.m.{ [ `.! p.p.I.G.e./ V.Z.C.A.C.C.Z.w.C.C.w.S.P.L.A.w.e.",
"e.w.V.7.D.n.D ! }.T Z.R.P.C.$   . H.N.0.{ 6.q.A.A.m.q.m.e.e.e.a.e.e.D.G.P.e.[ +.^ q.V.L.L.C.w.F.m.<.C.C.m.C.C.p.A.Z.w.w.C.V.w.S.",
"q.0.0.X.e.M.^ ^ 3X^ q.m.e.{ $     Z.m.1.{ q.A.Z.n.*.} } [ *.[ %.%.&.n.e.J.) ! -.! q.A.A.q.Z.P.C.w.m.m.<.1.q.A.n.C.A.m.n.A.V.C.m.",
"{ *.1.} _ q.U.S 2XU.C.n.X.) *   . *.{ %.{ { { { &._ _ ..{ 0.[ X.} ) %.&./ ..*.-.D A.p.8.e.n.C.w.m.Z.m.m.m.0.w.C.p.e.e.e.e.e.e.w.",
"b.) [ z.<._ M.R %Xw.p.C.6.F.$     { ) { %.[ [ *.[ ` ` { { *.{ } %._ { [ &._ ^ @.^ D.F.A.n.D.D.w.0.1.<.<.} 6.w.n.m.n.n.n.V.C.m.0.",
"_ _ 0./ _ l.w.F 7Xb.D.p.W n.@     _ ..) ) / _ / _ &.( [ ) ^ ^ E / ( m.F.n.m.[  .T V.n.&.6.*.1.&.*.[ { %.*.*.6.w.{ _ *.6.0.{ _ { ",
"} ) { } _ } ) D <Xv x.X./ v.+   . _ ^ ~ ~ ~ ( [ T T E E T E E T { { { e.W [ Q  ./ *.0.{ { { ) { { { { { { { _ _ _ 1.) { X.{ D { ",
"{ Z _ } ( { l.T 8XU { 6.x.[ +     ^ E ~ ^ ^ ~ E E Q T U T T Q T A ~ _ w.( ) E  .l.} ( { ) { } { { } 0.*.{ { { { / { _ ) } ( A ) ",
"E | E / } ( v Q 1XU F E | T @     E A A C D C U T C C C C T U U ! ) E ~ E C n /.C { } ] ~ C ~ | / ( _ { ( T ~ ~ ^ | C _ R { v Y ",
"b ( ( / ( R s k /.~ C f b P *     U n T b U U U n n n b n n b b c b A E b T c _.Z s v b C n m a C n U U U U ~ [ ) ~ T d T x x U ",
"n ~ ~ ~ | ~ b n = ! c c N 9 &     q x n c n v n n n n U C L n n p k v A b c v Q.m n l b r i c L v x x c c x b b s U C ] ( ~ s x ",
"g Y W E Y ~ s x > # k 3 9 k ;     $ i j j c x b i s e s x i s i x n r r t > > /.b i i x c j j q e q q e u i i i r i T s Q i t r ",
"C ~ [ } Z s n =X .- O 1 = # k     o u c x c c v b b b b b b b N Q P A T P q >X`.{.N ! W ~ n k i v i e e q i c c c c x w c c c b ",
"1X].{.{.{.{.+.+.-.+.|.|.'.[.}..     X X X X X X X X o o X o O $ B 8X1X1X5X5X7X{.{.].2X2X7X1X@.5X2X1X2X5X5X2X5X2X5X5X5X3X2X1X1X5X",
"^ ~ ! E ] ^ ) ~ ^ ^ ~ ~ E ! E .                                         3 / R W h R W ^ W ~ ^ ! F $.^ T [ r ;.].|.Z A W ! ! ~ ^ ",
"Z.C.C.S.H.P.L.L.H.A.m.V.C.C.Z.X     X o o o X o + X X o X X . .       . u ! e.( e.9.OXXXr.d.r.Z.e.d.d._ W E 7 &X! R S.m.[ F.D.w.",
"m.C.w.Z.m.Z.C.C.F.V.C.C.C.m.m.&     9.' &.q.[ ! 2XH F r.H.e.9.S.e.d.m.e.&.m.d.d.K.A.9.H.XX5.e.J.u.r.A.4.u.A.s {.I D.( e.D.n.P.E.",
"e.C.m.Z.e.C.n.m.Z.n.m.C.m.m.m.<     Z.[ W 0.b.! 5XS B.F F.u.3.t.A.J.d.9.4.9.u.A.r.r.a.oXS.K.r.e.[ / ^ W 9.J.4 |.%.! A.A.7.a.E.J.",
"m.n.C.p.A.S.A.C.Z.C.C.w.e.w.w.<     w.D.5.7.' / 5XZ H.s.u.9.S.4.d.a.e.XXa.u.s.r.e.a.OXA.8.K.d.r.P.d.} G X.d.T '.~ m.V.w.Z.E.A.D.",
"e.e.C.q.m.w.q.0.q.q.0.q.6.6.6.<     J.0.9.u.X.^ 7XR d.F A.K.&.N 9.d.s.A.A.9.d.9.d.P.9.r.d.r.H.9.5.~ {  .) h ^ *X~ a.a.D.P.p.U.w.",
"0.w.m.e.m.w.w.b.w.6.6.e.0.0.0.<     q.m.A.A.6.V l [ A.e.W W F (.4.r.d.9.d.K.[ [ d./ 7.F G w.e.F.J.S ^ H ^ R ' '.D t.C.8.I.C.8.q.",
"7.0.w.e.w.q.q.6.0.1.0.q.q.e.0.s     n.w.7.F.b.: ; _ A.7.r.F.A...! ( ..e.e...F W [ ^ S ) ^ F F F / F.a.R w.S ! '.W C.V.D.n.n.w.6.",
"/ 0.q.X.2.n.b.W q.q.{ { _ &.7./     0.{ 7.q.0.p @.{ p.r.F / ..^ o.#.i.7.i./ n.W  .0.h / / / N.W / _ ( / F E R }.T n.D.n.A ( _ &.",
"} { q.*.w.q.{ { { 6.] 6.b.0.{ 6.    N.q.6.w.q.P =.b.H 2.m.6.) / E %./ ) / ) W ^ / { R ) W Z W W S t./ ..W / ! ,XQ A e.} ( M.D M.",
"[ [ [ { 0.{ [ ~ ^ E ..( ^ ^ q.[     0.n.w.n.q.D +.^ w.{  .W F ( W %.W / ^ / F W S ) 8 0.D ` W W o.E ..=.W / A 1XQ E 7.E ^ Q m _ ",
"W ~ ] T E { { R E [ ^ ~ [ [ %.b.    r / _ &.n.R  .~ S R [ ) / / W S / F ..W e./ T N ^ T A A N D Z / R ( W S N 2Xv c.w.~ ~ D T Q ",
"Z ( E D T ] b.E ! T T ~ U ~ ^ )     + R ( ^ } T +.m m ) D ) 0.F W V W W F F m.W A ^ R A D m ~ S S R D ( A N c ,X+XD.v D v b ~ ~ ",
"E C T ~ ^ ( ) T b j b b N A T n .   o ~ ` T m x W.T R n m v h A ~ m N T s n m m m n t N < Y N E n v m n c 3 3 ].b <.s C P L Z U ",
"N n n C Q L n b u t u b b n x P     X b b k 6 M W.< : c m c Q s b k c N p c t c s b v c < 4 s v N d s c 0 & B.!.x A i x q N a b ",
"w c N w u c u h p h y * % & 3 2     X 9 q 5 4 ;.>.>.< w 3 q q 9 3 5 5 4 w 2 i 5 w ;.;.:.@.;.4 b c c 7 s > * k._.>.i c 0 , i n x ",
"2X1X,X,X1X`.g.`.~./.Q.g.~.g.h..X.   @ ;X%X,X4Xf.:X,X>X>X,X1X2X5X2X1X2X2X2X<X1X5X5X{.[.{._.!.~./.K <X+.2X2X_.].{.{.{.{.5X'.2X5X<X",
"D ^ W T ~ ! n N F q.q.w.V.D.m.t     * ! ! ! ^ W ( ^ ~ ) Q W T R R ! T ^ ~ ^ ) ^ T ! Q ! R $.! O.,.,.> b ! Q ` ! ^ E ! W W T E ! ",
"b.6.0.b.q.b.| q.m.D.J.s.e.e.p.o     c ~ t.[ m.M.w.m.q.w.A.e.e.) C.C.F.n.A.Z.n.n.e.[ W { R ^ ] @.O.3 y R W E ! ! N.F.D.D.n.Z.| w.",
"q.6.e.6.e.6.6.e.D.D.w.D.R.A.7.    O T V.s.7.m.F.V.F.F.V.V.F.Z.n.q.A.w.a.C.w.e.C.Z.w.e.n./ / } @.k.R ( A.n.e.A.e.A.q.A.6.A.w.e.e.",
"e.A.e.m.6.C.m.m.e.7.6.F.Z.e.C.    * ! A.a.C.{ J.m.q._ m.w.C.A.e.e.w.p.A.n.m.{ e.{ D.C.A.D.D.[ &.6XN e.p.L.p.R.a.w.e.p.w.e.e.w.w.",
"Z.C.Z.w.Z.w.Z.m.C.w.A.0.X.J.A     r T R m.D.) p.q.6.m.m.C.C.w.f $ X   .     .         . . 4 [  X`...m.w.w.e.V.{ V.m.0.1.0.1.w.C.",
"m.C.m.0.w.0.q.0.e.q.N.n.e.6.%     ` I ~ w $ X X . . . .                                   = W I  XP N.n.8.e.V.e.1.0.0.6.0.0.0.0.",
"C.e.w.q.6.q.{ { 1.X.6.n.6.6.@                                     X $ % = = = = & = ; & w / 7.~ ].W n.C.w.0.D.0.0.<.0.6.{ w.w.1.",
"n._ q.&.../ 6.0.%.n.0.7.6.0.>               X X X o X X o $ q ( ` [ ) ) [ { m.n.n._ / [ ~ n.w.T _.E n.6.z.n.X.{ { ~ ) 1.1.0.w.z.",
"^ ) [ [ j.} E [ W / 0.n.0.w.0.r > 9 ^ F ) ^ ^ / ^ ~ ) T ^ ) ) ( W ~ W ( ~ W ( ~ E ( ~ [ ) 1.V.U ~.I ~ E D } E ] &./ { ) ) <.<.w.",
"^ ^ ~ ( Q ^ ^ [ 0.n.<.T 6.) X.U O.T ^ W [ Q [ T E ~ E ~ T %.~ / ( R D T T E E T Q ~ ~ Q ( w.<.i g.U | D 1.^ T D Z C ~ A m E E D ",
"~ T ~ / D ~ ( E <.*.1.0.0.1.^ T Q.c ~ ~ ] ~ ^ C E U T Q T E U E A n T E Q ! T A ~ E T D Q <.D 5 y.c n U T U d N Q Q U C n n T n ",
"c E E ~ 1.( A E ~ ~ [ *.U Q L n Q.j N T Q m v d n b c N c b n n P n U n n U U Q v n n U N c c 0 g.s e x i b b Y _ A A n v v x b ",
"u b n n Q b n E { { n m / Z f n g.r w n b n P P b N c n x b b b c c c s n v n n C s s n j 9 3 B ;.q x g P c L b v i r i u 5 5 q ",
"w 2 5 5 4 5 s 5 % % > e q 2 2 k.y.y.5 r P j b T s x c u c s c c i t 3 > < 5 w g b q 5 5 3 9 ; y p 1 , u , 9 1 3 q u 2 w w 2 q 2 ",
",X5X,X-X-X-X#X-X@X#X-X#X#X-X-X-X-X#X:X-X}.8X,X#X,X:X:X#X#X,X@X,X-X<X@X:X:X:X>X>X#X;X;X#X;X;X$X-X,X#X-X$X:X#X@X#X#X;X-X#X#X,X-X$X"
};
