/* XPM */
static char *_b601214bff24e80f389ffd22166fc32pCxSKqZkneVsb8up[] = {
/* columns rows colors chars-per-pixel */
"64 64 249 2 ",
"   c #3A1B18",
".  c #2A1A15",
"X  c #30231C",
"o  c #3B1C21",
"O  c #33332A",
"+  c #36292A",
"@  c #1D1E16",
"#  c #4B161B",
"$  c #441B1C",
"%  c #4C1A1D",
"&  c #431719",
"*  c #521B1E",
"=  c #57181C",
"-  c #631B1D",
";  c #6B1C1D",
":  c #6B161B",
">  c #761C1C",
",  c #44221D",
"<  c #57251E",
"1  c #6A221E",
"2  c #441C21",
"3  c #4C1C22",
"4  c #4C1826",
"5  c #541D24",
"6  c #5B1C24",
"7  c #5C1D2A",
"8  c #571924",
"9  c #631C24",
"0  c #6C1D25",
"q  c #641D2A",
"w  c #6C1E2B",
"e  c #641622",
"r  c #741C25",
"t  c #7B1E24",
"y  c #731D2B",
"u  c #7B1E2C",
"i  c #771220",
"p  c #791E32",
"a  c #4D2223",
"s  c #452324",
"d  c #532223",
"f  c #5B2124",
"g  c #5B232B",
"h  c #562628",
"j  c #5B2334",
"k  c #44332D",
"l  c #642225",
"z  c #6C2224",
"x  c #64222B",
"c  c #6C222B",
"v  c #6C2A2D",
"b  c #692B27",
"n  c #742325",
"m  c #7C2225",
"M  c #7B2A25",
"N  c #74232C",
"B  c #7B232C",
"V  c #742A2B",
"C  c #7C2B2C",
"Z  c #772A25",
"A  c #6C2432",
"S  c #682835",
"D  c #752533",
"F  c #7B2533",
"G  c #742A34",
"H  c #7C2A33",
"J  c #73253A",
"K  c #7B253A",
"L  c #732A39",
"P  c #7C293A",
"I  c #783333",
"U  c #72332D",
"Y  c #3A4233",
"T  c #4D483A",
"R  c #765911",
"E  c #772C41",
"W  c #494845",
"Q  c #514E4C",
"!  c #6A6C65",
"~  c #776C6B",
"^  c #75726A",
"/  c #737574",
"(  c #6D7670",
")  c #655756",
"_  c #861D1E",
"`  c #85281E",
"'  c #A4271E",
"]  c #831D2B",
"[  c #881E27",
"{  c #971F28",
"}  c #881E34",
"|  c #AC1D35",
" . c #832325",
".. c #8B2326",
"X. c #83242C",
"o. c #8C242C",
"O. c #84292D",
"+. c #8B2A2C",
"@. c #842A23",
"#. c #94252C",
"$. c #9B252B",
"%. c #942A2C",
"&. c #9B2B2D",
"*. c #972625",
"=. c #883628",
"-. c #9A332A",
";. c #832533",
":. c #8B2533",
">. c #842A33",
",. c #8C2A33",
"<. c #83253A",
"1. c #832A3B",
"2. c #8C2A3A",
"3. c #8B2539",
"4. c #942533",
"5. c #9B2633",
"6. c #942A33",
"7. c #9C2C33",
"8. c #942B3B",
"9. c #9D2D3A",
"0. c #93253A",
"q. c #873335",
"w. c #9C3234",
"e. c #983437",
"r. c #AB2B25",
"t. c #A4262C",
"y. c #AB262C",
"u. c #A42B2D",
"i. c #AB2B2D",
"p. c #A62825",
"a. c #B22A2D",
"s. c #B42729",
"d. c #A3342C",
"f. c #AB322D",
"g. c #A73927",
"h. c #B2332D",
"j. c #AC2634",
"k. c #A42C33",
"l. c #AB2C33",
"z. c #A42D3A",
"x. c #AB2C3A",
"c. c #A42637",
"v. c #B22C33",
"b. c #B22C3A",
"n. c #B72937",
"m. c #A43234",
"M. c #AB3135",
"N. c #A3323A",
"B. c #AB323A",
"V. c #A73A36",
"C. c #B33134",
"Z. c #B1323A",
"A. c #B83739",
"S. c #C4353B",
"D. c #824E1D",
"F. c #9A771B",
"G. c #92641D",
"H. c #BD791A",
"J. c #AA761C",
"K. c #884A27",
"L. c #905426",
"P. c #AD4727",
"I. c #B1502B",
"U. c #BB7922",
"Y. c #AD6E22",
"T. c #9A6022",
"R. c #C57E2B",
"E. c #872B41",
"W. c #993140",
"Q. c #992A41",
"!. c #AB2B42",
"~. c #A43343",
"^. c #A63742",
"/. c #BB3844",
"(. c #B62B43",
"). c #C23343",
"_. c #C53A45",
"`. c #CE2F44",
"'. c #895B65",
"]. c #886368",
"[. c #996978",
"{. c #8B7777",
"}. c #92777B",
"|. c #8C6971",
" X c #8A5652",
".X c #C54249",
"XX c #AD9118",
"oX c #9EA60D",
"OX c #B2B40F",
"+X c #BAA917",
"@X c #ACAC12",
"#X c #999011",
"$X c #C28C1A",
"%X c #C4B714",
"&X c #C6AA15",
"*X c #CAAB21",
"=X c #BBC70B",
"-X c #B9CC0C",
";X c #C5CB0D",
":X c #C8D50A",
">X c #C9CA12",
",X c #CBD110",
"<X c #C9E32D",
"1X c #CCE905",
"2X c #8B887B",
"3X c #96867B",
"4X c #B2AA60",
"5X c #CCDC55",
"6X c #D0E540",
"7X c #AB7B87",
"8X c #9D8D8C",
"9X c #968985",
"0X c #9C948B",
"qX c #949B8A",
"wX c #96978A",
"eX c #9B9493",
"rX c #999A94",
"tX c #8E9A8E",
"yX c #A78A8D",
"uX c #BB978E",
"iX c #A29993",
"pX c #B99B97",
"aX c #AF8E90",
"sX c #BAA39B",
"dX c #B7A59A",
"fX c #BDB195",
"gX c #AE99A1",
"hX c #BBABA2",
"jX c #BAAAA7",
"kX c #BDB4A5",
"lX c #BDB5AA",
"zX c #BCBAAC",
"xX c #B6BAA9",
"cX c #BDBBB2",
"vX c #9897A7",
"bX c #C19B96",
"nX c #C0968F",
"mX c #C2A69D",
"MX c #C5BA9C",
"NX c #C5ADA8",
"BX c #C3B3A4",
"VX c #C2B4AB",
"CX c #C3B9AB",
"ZX c #C7B6A9",
"AX c #C5B7B3",
"SX c #C5AEB2",
"DX c #B3C1B0",
"FX c #C2C686",
"GX c #C2C2B0",
/* pixels */
"eXl 5 L H  .B J G G N P F 1.F K ;.H B F B B H H P J B L J B BXcXcXBXC P z X.D K B F F F F D N P ] G P c B >.D L m :.>.H 8.<.NXiX",
"h > r x.p.k.B.l.x.x.5.#.%.,.,.m F D F P P K P D r 4.4.+.F 4.,.xXAXN (./.`.`.D u F K P D D G P F B J c 1.P x.F  .^. .2.>.m G g qX",
"S k.z.b.v.y.C.l.i.p.i.i.t.l.k.x.M.l.l.x.l.l.l.i.&.%.5.v.%.7.#.AXB .Xj.M.f.j.i.(.A.l.u.Z.u.M.C.i.n.e.v.> k.y.~.u.k.z.2.] ;.J q DX",
"j l.d.l.d.Z.p.N.l.m.M.k.k.$.x.t.l.u.l.v.l.i.i.v.k.+.M.j.z.N.>.NXV /.v.j.A.f.d.d.v.i.i.i._.y.t.y.s.l.Z.k.M.j.~.*.l.n.O.:.0.F x AX",
"0 t.d.r.' x.%.l.b.k.k.x.6.N.,.q.7.6.7.z.z.k.x.k.x.k.l.&.6.#.,.zXK l.y.i.i.v.l.b.k.B.k.B.k.x.x.k.m.B.[ c.l.k.y.l.l.t.+.4.:.P N zX",
"e y.N.j.l.5.5.4.l.x.*.N...5.+.%.7.$.$.k.l.l.i.p.j.' c.v.+.;.$.xXE r.!.l.l.5.p.!.v.i.p.u.u.l.k.k.k.i.:.k.j.+.a.7.l.V.W.4.>.B <.CX",
"j B.o.0.:.#.o.1.+...7.o.6.o.4.5.7.4.#.6.5.k.z.z.x.f.N #.8.c &.AXF v.w.O.z.,.+.l.9.o.4.N.%.~.o.o.+.x.1.4.q.F ;.E.4.C :.5.X.W.N VX",
"= 7.2.#.m.+...%.:.4.o.,.,.2.H >.,.:.,.6.o.o.%.4.2.#.F L J <.V SXF r.l.y.N.:.u.,.o.#.~. .4.:.X.2.>.,.;.,.,.O.o.4.3.B :.:.O.o.G NX",
"6 :.o.O.o.6.> 4.,. .>.,.,.B y N F >.+.#.5.5.0.X.>.0.P V F F L kXG k.>.9. .1.u.;.2.2.X.O.,.O.>.>.p P F ;.} ,.X.:.;.;.,.B O.} P 3X",
"% 2.o. .o.,.z z z y r 8.o.o.2.N B ] 4.[ Z V z P N B r P D B D zXK j.X.:.} ;.{ ;.:.X.;.o.W.:.;.] N N F F >.B H H <.B 8.B u ] L 3X",
"a 0 ;.4.:.} 3.1.y P N r O.o.[ :.D G v c r u B D N B G 5 y c L NXD #.;.n 1.w o.P ;.;.:.X.:.] B N w y y c w y r y e F X.r m u = 9X",
"6 u :.> r ;.r n c q D y u >.B 0 c c w J D D D 0 N u x % 9 A < NXF #.F N D D m z c N N B N N l x w D x l 6 q q w x x V - x z [.2X",
"d x z z V 1.r B c z 9 p B e N A 6 # g q A F y H r y D 0 c f = lXc > m w L 9 0 c w 0 0 D u D 9 x w 5 a * 5 $ a 7 q l e 0 w l h 9X",
"5 x r ;.c w w h z x 5 d 5 < 3 3 a a 3 5 5 g q 9 c c p p p 8 h zXL N N N q G y 6 q 7 x 7 9 q 7 % q $   8 g $ $ q 7 d 9 6 g 6 2 9X",
"pX[.A c S d 5 a 6 6 8 8 7 # h [.k W O k g q g ,   h a 5 6 a }.~ [.x z D J w q x 9 q A x -Xw A q 5     8 d s   7 w q A q S 8 8 [.",
"qXwXyXyXqXiXSXxXVXAXcXzXAXzXzXrXrXeXvXiX8X8XiXxXVXAXrX8X0XrX~ / / wXZXVXlXBXiXwXiX0XwXFX5XCXVXCXAXzXcXlXAXAXzXVXZXzXzXCX+ O eXtX",
"V u P v P 7 O W eXP L ] J D P X.J F P F D D F I 1XP F B X.m.l.l.;.B F >.B F K rXP c f.%XP n D F z.l.B.N.t P F P B ;.m o.m.N.X.D ",
"e.n.c. .B H P + 0XN  ././._.x.y.i.l.i.j.i.v.v.H.>XC.u.m.u.l.M.k.k.N.!.o.^.X.<.0Xu C.s.,Xv.l.D b.i.j.a.l.B.w.[ N.z.x.l.b.n.j.l.B.",
"a.j.x.v.t.X.K L eXF l.v.r./.u.M.i.l.l.N.m.k.l.%X&Xn.v.b.v.a.v.i.r.i.n.).k...;.wXD a.s.,Xs.r.H r.v.y.a.i.j.C.p.v.i.f.Z._.A.a.u.l.",
"k.r.a.w.b.l.n J rXD j.).S.j.l.j.S.A.B.7.#.%.i.,X&XM.k.M.u.f.i.l.k.M.s.s.S.N.E./ K N.I.R./.l.k.b.B.*.l.M.l.l.l.y.v.l.t.u.v.j.u.v.",
"m.#.#.*.k.x.B B lXu i.k.M.o.t.Z.a.v.k.#.o.7.B.>X+X%.:.:.:.,.<.E.2.+.k.k.Z.` F / F z.>Xa.B.l.S.x.7.x.x...$.k.M.l.i.l.x.l.Z.l.l.l.",
":.6.4.4.,.k.b.G BX!.M.k.+.;.x.-.k.4.:.2.2.,.o.+X+Xo.,.O.o.6.o.+.,.;.2.,. .,.E.~ v M.%X*.m.l.i.p.l.x.l.x.~.&.k.l.i.m.B.k.i.f.M.&.",
"5.>.>.c.&.o.!.n fXt.r.r.%.b.y.s.9.o. .:.,.o.+.XX+X1.P 2.,.6.#.:.,.>.:.o.+.,.X.~ ] S.&XZ.y.l.b.t.$.#.*.#.#.#.k.i.l.t.l.i.y.y.l.5.",
"..+.4. .O.{ 9.n AXz.j.r.q.c.X.u.X.O.>.>.>.>.T.T.XX+.X.;.X.H P D O. .x.v.t.m.3.! A P.XX%.%.4.4.o.2.,.:.:.,.6.&.t.o.o.,.%.k...o.2.",
"o.o.4.:.X.3.X.N lXl | -. .n.[ u.O.;.X.N N m XX=.#X=.y y y n y N >.} ..k.B X.D !  .+Xw.#...:.o.,.o.o.o.} o.:.+.o.o.#.X.o.,.[ n :.",
",.1 o.o. .o.0.r GX0 [ $.j.} n w. .X.y u F ;.OXt F.K.N N N N N N V B o.k.m ;.N ! 5.:X .,.o.X.:.o.#.#.4.4.o.o.:.o.O.o.o. .o.X.z >.",
"m [ >  .#.] 9 c lX0 Z > ] N B t C N 0 c 0 V OXc R F.0 0 0 c c 0 B K t m V 0 e 9XZ OX:.u B ; m X.t B O.,.t t t t m [ 0 o.C 3.9 r ",
"9 H B m m N f 7 7XB n - q c w 9 e 0 0 N - F.D.0 w @X9 l q x 9 9 f q z n 0 c 7 9XF.R l 9 c q x f 0 : 0 r 0 0 u ;.;.m N < r = 6 0 ",
"q u t t [ u e w O w 7 6 w #   2 6 9 6 q 6 -X- 9 q =Xq w c q q q f 8 l ; 9 6 7 [.-X7 6 q 5 d 6 0 l 5 6 g 7 8 9 6 < : 0 u F p 6 6 ",
"= r m n i u 6 e + @ j o 4 8 o q f f * 6 = -X6 9 6 #X6 5 5 5 6 5 = x * * a     9XXX4 6 5 6 8 8 # 3 4 % 3 a 5 h 5 d 5 D f u * d a ",
"; V X.3.l 6 q aX! O @ o X . 8 8 # % 5 7 b oXl 6 x D.G.q q l x x J w c y v , mX4X4XS D u D x g 8 x 5 3 3 3 5 7 7 6 6 6 % 9 6 6 6 ",
"zXrXyXyXrXrX~ ^ / / 7XeXwX8XeXlXlXlXlXlX5XFXkXBXlXlX<XcXBXVXVXCXkXAXxXBXVXGXGX<XrXrXCXCXCXlX^ cXVXkXVXZXVXVXZXVXAXVXCXxXNXxXVXVX",
"F F P N P F ;.B F F D D G F D P G X.<.D =X9.[ xXDXx -XP ;.M B 7.K E B F V C K.XXQ I P >.H F H P M 1.F D ;.W ~ wXaXb c G F F B K ",
"M.i.y.v.n.).S.A.A.v.v.v.v.l.i.j.j.p G -.,Xe.D K SXf F.L.G v 1.Q g.f.Z ,.;.F >X@.i.f.S.S.f.h.V.s.d.B.f.+.H N T vXJ L v.x.>.v.b.7.",
"l.M.l.M.i.C.l.j.v.l.l.l.l.l.l.l.M.B.d.>.+X&.:.F CX@.I ;Xn.M.d.s.f.Z.B.N.#.B.:XM./.h.f.S..Xg.d.C.B.g.l.V.m.C.d eXL a.[ m.a.j.S.S.",
"l.M.l.l.l.l.l.l.j.j.l.x.l.m.m.l.-.<.a.J.K.7.8.D AXV B.:XZ.^.g.V.C.^.h.d.g.g.%XZ.V.V.i._.C./.V.M.;.O.H C d./.Y yXP D v.l.e.r.).A.",
"i.i.i.i.v.v.C.i.l.i.i.i.u.t.u.M.Z.N k.>Xg.w.K H AXv n.H.U.i.x.g.C.r.m..XM.I.XXh.f.C._.C.d.S.V.g.S.C.#.M q.S.N qXF B.y.p.j.).v.b.",
"N.k.M.l.M.k.k.7.N.m.w.7.&.5.w.N.y.!.A.&Xd.h.%.m CXC f.I ,X/.%.S g.h.M.h.f.H.U.g.V.).d.V.V.f.n.f.P.G ,.C >.Q J gXB i.i.v._.i.n.$.",
"&.u.l.l.u.u.t.7.k.&.&.7.&.&.u.k.i.f.H.I.V.V.e.b Q 1.M.i.XXK.C S.d.P.h.r.Z.*X-.;.B.@.m.M ` t.M.v.B.U >.I C F <.qXn ^.r.p./.i.p.k.",
"7.7.&.k.k.z.7.7.7.4.6.k.k.7.7.&.e.%.;Xg.P.(.Q.O O  .Z.' P.%Xh.>.K H O.B.m.=XZ I X.C V P F I I V B a.C.G t.b F qXF m.y.b.l.u.k.6.",
"O.e.m.%.-.k.9.B 7.9.o.:.o.6.w.7.-.f.=Xe.e.7.7.T / o.i.V.@.:Xq.B H  XV.-.N.:X5.V C 4.b C O. .5.M O.O.O.C V N D rXL k.l.t.v [ X.#.",
":.o.9.#.k.7.o.,.+.7. .8.W.e.o.7.c.XXI.P.-.7.7.J ( 8.@.e.V.XXK.>.G E.H  .K.XXC 1.O.,.I X.H b H O.M W.C >.C O.G hXy 0 u.6.;.x.n c.",
";.;.X.:.8.:.X.F B N >.P X.X.9.X.:.:X6.e.$.j.k.A ^ H $.+.I K.XX>.H 3.H M OXO.I B V H T 9.c >.B F O.C O.8.O.C N kXN y *.D B r v X.",
"D u ;.N B :.;.C u P F B ;.;.:.8.>.%XH q.,.6.t.V ! u V N ;.>.OX .V U O.M ;XM m.M N c P V z v v V Z C Z m C V c BXz | l.B m N y y ",
"z X.y V N ] 9.m G c N G 0 B H C F.I.V B >.B 4.A ~ c b ;.v O.;XV  .U n =.@XV m.C v F G z G x t V v H N H c x 7 sXaXj.l n q x m F ",
"N 0 r B B r X.y q = 9 9 c c N z =XZ n F ] N z 6 }.c N q v l :Xz N l l =Xb l z x b q d l , > z N l 6 l q g 4 2 8Xq *.h : A e z w ",
"z q 9 0 y 9 q l 5 5 4 j q x = U XX< f g q h & w }.& X 6 S < =Xh x 7 g -Xh g d g d q x d , , < 6 x 6 h f 2 . |.3X6 z 8 7 2 x < x ",
"% 6 c % 5 7 5 Q W Q Q . .   , oX, = 2 & 4 , & ].|.'., # $ # oX< $ s R R 2 $ * $ % '.].'.].'.$ 7 7 f < f   . |.9X].8 9 4   7 : 6 ",
"ZXNXsXhXlX9X2X9X9X7X{.{.}.2X3X<X9XxXsXdXfXjXjX2XhXsXhXsXNXBX5XFXBXVX6XMXlXlXlXcXAX8X8X8X}.9XtX9X! kX^ VXVXwX0XrX0X8X0XVX0XlXAXlX",
"n H C N F D 9 0 N 9.k.u.j.x.H.T.CX6 c E B K u Z K F D >.N F XXI L P -XP B B X.B N J p D G <.K ^ / ~ + j L G } F P D F F F N N G ",
"9.5.4.c.7.9.[ 9.m.a.b.M.V.h.,X .xX- c N m.;.k.x.u.l.k.k.M.k.&X=.j.P.$Xi.l.b.k.k.m.,.m o.G F ] ^ ( s h I B N K L c.x.x.j.x.x._ t.",
"m.%.m.&.m.&.k.m.b.j.t.s.).I.XXI lXw D l.r.w.x.b.v.v.v.j.y.n.&Xh.M.U.P.l.i.k.i.l.l.t.m.l.M O.3.^ |.J B Z.t.l.v.m.M.u.Z.*.M.p.m.k.",
"u.B.k.l.$.M.M.k.M.d.&.v.n.P.P.C AXw F b.i.a.o.Z.B.k._ M.l.i.U.Y.u.%Xl.C.k.B.#.N.:.s.C.v.v.j.} ( AXx N.i.A.s.S.v.p.u.l.l.k.k.u.u.",
"n.l.l.i.x.p.x.l.l.t.B.$.%.Z.a.D qXJ D N z.v.>.C.7.#.z.x.C.i.f.,Xr.>Xi.k.7.o.m X.P j.-.M.s.u.<.eX0X>.c.r.p.l.j.#.k.l.$.$.$.t.u.l.",
"i.i.M.&.k.7.k.7.z.5.~.t.e.7.&.aXtX;.J  .o.x.B y.o.B X.>.B >.,.=.-XY.;.:.o.~.:.~.3.t.M.k.b.d.m D rXA z.l.&.M.j.d.$.5.#.%.5.t.$.&.",
"M.l.k.7.7.e.o.o.*.e.e.t.k.u.l.J rX] E x.+.B H !.x...~.,.6.] ;.;.q.:.O. .,.9.o.o.;...m.o.!.y.d.N 0XB t.v.u.&.j.&.5.#.&.%.#.k.$.$.",
"k...9.6.>. .7.w.o.5.7.e.#.$.w.m / K F H o.;.;.;.;.<.B ;.H X.] :.<.>.;.;.O.o.z.c.c.o.O.P u i.u.J 2XN l.*.p.t.*.#.,.m X.4.4.5.u.p.",
"H ] ;.;.0.:.N X.H M 7.c.7.k.5.J ! D 1.N B >.B H F B ;.y H >.;.H H B B H m B X.m M B t ;.B p.y.r 9Xp u n m :.N u 6.m +. ._ $.*.t.",
"P B F F B B X.<.5.c.#.> w. .q.0 ^ N B B :.y 2.y N m B B r 2.t B H B n N c N N N u u t N B t.*.5 }.0 } n 4.B n r z > N c z y r n ",
"B N m m Z B t t %.%.$.5.#.#.] c {.6 F N u B B z D w y N 0 N n r 0 ; c N N F c c u y N 0 y 6.> s {.6 0 y 0 w 7 c N r y w q 0 N q ",
"7 y N t 5. .z N B N >.,.r N w S }.8 q N D S q g x q 7 x 6 q q q c q 0 9 w 0 y y q v 9 0 q 9 7 k |.5 * 6 5 9 9 y >.z z 0 = x 6 9 ",
"5 9 c e N - q L [ o.; ;  .; < 0 {.h # 0 e q y w 9 A 6 x = x q q g 7 x 6 q 9 9 e e h f 9 7 2 2 E '.2 = d w 5 q e 9 * d 5 5 $ $ # ",
"2 $ $ $ s $ 8 # . X o 4 3 2 2 |.|.].$ * S 5 6 w 6 7 g * 6 d 8 6 5 a     $ $ < d e 4 3 # o 2   W W +   5 $ 4 o 2 # 3 & 2 % $ s & ",
"hXZXsXsXpXuXdXsXuXpXpXpXuXpXdXbXpXpXsXbXiXGXfXdXmXsXsXpXsXsXpXNXnXNXpXdXhXjXpXhXpXpXuXaXpXpXnXpXmXpXnXuXbXdXuXuXpXpXpXdXdXmXpXaX"
};
