/* XPM */
static char *_bcf6f4a3e8249f3da54e4c369046460BzRMut1uXErEg3Pp[] = {
/* columns rows colors chars-per-pixel */
"64 64 106 2 ",
"   c None",
".  c #35241C",
"X  c #35251C",
"o  c #34261C",
"O  c #35261C",
"+  c #37261C",
"@  c #39271C",
"#  c #3A261C",
"$  c #432C1D",
"%  c #442C1D",
"&  c #472E1D",
"*  c #532C1F",
"=  c #542C1F",
"-  c #542D1F",
";  c #532720",
":  c #552720",
">  c #792825",
",  c #7B2925",
"<  c #872927",
"1  c #892927",
"2  c #892A27",
"3  c #99252A",
"4  c #9A252A",
"5  c #9B262A",
"6  c #9C262A",
"7  c #A1272B",
"8  c #A3262B",
"9  c #A2272B",
"0  c #A4262B",
"q  c #A5262B",
"w  c #A5272B",
"e  c #A6272B",
"r  c #A7272C",
"t  c #AA2328",
"y  c #AA242A",
"u  c #AA252A",
"i  c #AA252B",
"p  c #AA262B",
"a  c #A8272C",
"s  c #A9272C",
"d  c #AA272C",
"f  c #AB272C",
"g  c #AC272C",
"h  c #A0282A",
"j  c #AA2A2F",
"k  c #AA2B2F",
"l  c #AA2F32",
"z  c #AB383A",
"x  c #AB393A",
"c  c #AB393B",
"v  c #AB3A3B",
"b  c #AC4242",
"n  c #AD5451",
"m  c #AD5C57",
"M  c #AD5F5A",
"N  c #AD625C",
"B  c #AE7369",
"V  c #AF8376",
"C  c #AF8477",
"Z  c #B19988",
"A  c #B19D8B",
"S  c #B19E8D",
"D  c #B1A18E",
"F  c #B1A390",
"G  c #B1A491",
"H  c #B1A592",
"J  c #B2A894",
"K  c #B0AD98",
"L  c #B0AD99",
"P  c #B2AD99",
"I  c #B1AE98",
"U  c #B1AE99",
"Y  c #B2AF99",
"T  c #B2AF9A",
"R  c #B2B09B",
"E  c #B3B09B",
"W  c #B2B19C",
"Q  c #B2B29C",
"!  c #B2B39D",
"~  c #B5B29D",
"^  c #B6B39F",
"/  c #B8B5A0",
"(  c #B8B5A1",
")  c #B8B6A1",
"_  c #BBB8A4",
"`  c #C4C1AE",
"'  c #C8C5B3",
"]  c #C9C7B4",
"[  c #D4D3C1",
"{  c #DDDCCB",
"}  c #DEDDCC",
"|  c #E8E7D8",
" . c #EAEADA",
".. c #F0EFE1",
"X. c #F1F0E2",
"o. c #F3F2E4",
"O. c #F3F3E5",
"+. c #F4F3E5",
"@. c #F4F4E6",
"#. c #F8F8EA",
"$. c #FDFDF0",
"%. c #FEFEF1",
"&. c #FFFFF2",
"*. c #FFFFF3",
"=. c #FFFFF4",
"-. c #FFFFF5",
/* pixels */
"                                                                                                                                ",
"                                                                                                                                ",
"                                                                                                                                ",
"                                                                                                                                ",
"                                                                                                                                ",
"                                                                                                                                ",
"                                                            &.&.&.&.                                                            ",
"                                                          &.&.&.&.&.&.                                                          ",
"                                                          &.&.&.&.&.&.                                                          ",
"                                                    &.&.&.            &.&.&.                                                    ",
"                                                    &.&.&.            &.&.                                                      ",
"                                                    &.&.&.                                                                      ",
"                                                    &.&.&.                                                                      ",
"                                                          / T T                                                                 ",
"                                                          T T T                                                                 ",
"                                                    &.&.&...|  .#.&.&.&.&.&.                                                    ",
"                                                    &.&.&.&.=.&.&.&.&.&.&.&.                                                    ",
"                                                    &.&.&.&.&.&.&.&.&.&.&.&.                                                    ",
"                                              &.&.&.&.&.&.&.&.&.&.&.&.&.&.&.&.&.&.                                              ",
"                                              &.&.&.&.&.&.&.&.&.&.&.&.&.&.&.&.&.&.                                              ",
"                                        &.&.&.&.&.&.&.&.&.&.&.&.&.&.&.&.&.&.&.&.&.&.&.&.                                        ",
"                                        &.&.&.&.&.&.&.&.&.&.&.&.&.&.&.&.&.&.&.&.&.&.&.&.                                        ",
"                                        &.&.&.&.&.&.&.&.&.&.&.&.&.&.&.&.&.&.&.&.&.&.&.&.                                        ",
"                                        &.&.&.&.&.&.&.&.&.&.&.&.&.&.&.&.&.&.&.&.&.&.&.&.                                        ",
"                                        &.&.&.&.&.&.&.&.&.&.&.&.&.&.&.&.&.&.&.&.&.&.&.&.                                        ",
"                                        &.&.&.&.&.&.&.&.&.&.&.&.&.&.&.&.&.&.&.&.&.&.&.&.                                        ",
"                                    &.&.&.&.&.&.&.&.&.&.&.&.&.&.&.&.&.&.&.&.&.&.&.&.&.&.&.&.                                    ",
"                                    &.&.&.&.&.&.&.&.&.&.&.&.&.&.&.&.&.&.&.&.&.&.&.&.&.&.&.&.&.                                  ",
"                                    &.&.&.&.&.&.&.&.&.&.&.&.&.&.&.&.&.&.&.&.&.&.&.&.&.&.&.&.&.                                  ",
"                                    &.&.&.&.&.&.&.&.&.&.&.&.&.&.&.&.&.&.&.&.&.&.&.&.&.&.&.&.&.                                  ",
"                                    &.&.&.&.&.&.&.&.&.&.&.&.&.&.&.&.&.&.&.&.&.&.&.&.&.&.&.&.&.                                  ",
"                                    &.=.&.&.&.&.&.&.&.&.&.&.&.&.&.&.&.&.&.&.&.&.&.&.&.&.=.&.=.                                  ",
"                                    +.+.&.&.&.&.&.&.&.&.&.&.&.&.&.&.&.&.&.&.&.&.&.&.&.&.o.o.@.                                  ",
"                                    ( _ X.=.&.&.&.&.&.&.&.&.&.&.&.&.&.&.&.&.&.&.&.=.=.o._ ( (                                   ",
"                                    T ~ X.&.&.&.&.&.&.&.&.&.&.&.&.&.&.&.&.&.&.&.&.#.&.X.~ T T                                   ",
"                              T T T T R ` ' ] o.&.&.&.&.&.&.&.&.&.&.&.&.&.&.&.&.@.' ' ` R T T T T                               ",
"                              T T T T T K T T ..=.=.=.=.&.&.=.=.=.=.=.&.=.=.=.=.@.^ R K T T T T T                               ",
"                              T T T T T T T T [ { { { { { { { { { { { { { { { { ] R E R T T T T T                               ",
"                              T T T T T T T T T K T T T K E K K K T K T T T T T K R T T T T T T T                               ",
"                              T T T T T T T T T T T T T K E E E T T T T T T T T T T T T T T T T T                               ",
"                              T T T T T T T T T E E K K E E K E T T T T T T T T T T T T T T T T T                               ",
"                              T T T T T T T T T K E E E E K E E T T T T T T T T T T T T T T T T T                               ",
"                              W T T T T T T T T K E E E E E K K T T T T T T T T T T T T T T R R R                               ",
"                              F F J T T T T T T E E K K K E E E T T T T T T T T T T T T T T T H H                               ",
"                              c v N T T T T T T K E E E K E R R T T T T T T R T T T I R R R A b v                               ",
"                              u t n W T T T T T R E K E E E K K T T T T T T R R T T R R R R A l u                               ",
"                              d u v m N D R T T R I I E E K R R T T T R T R R R T R R D N m n j d                               ",
"                              d d u u k Z ! W W ! ! E ! ! E ! R W W W W W W R R R R ! Z j t u p d                               ",
"                              d d d d j B C C C V C C V C C C C V V V V V V V V V V C B j d d q d                               ",
"                                    d d u j g g u g g u g g p g g d g d g d g d g d g d j d r                                   ",
"                                    j q 9 9 6 h h h h h h h h h h h h h h h h h h h h h q u d                                   ",
"                                        - - - - - - - - - - - - - - - - - - - - - - - *                                         ",
"                                        & & & & & & & & & & & & & & & & & & & & & & & $                                         ",
"                                            @ > 2 < ; . O . . O @         : < 2 > . .                                           ",
"                                              q g j                         u g q                                               ",
"                                              e p p                         d j r                                               ",
"                                              q g j                         d d r                                               ",
"                                                3 3                         6 3                                                 ",
"                                                                                                                                ",
"                                                                                                                                ",
"                                                                                                                                ",
"                                                                                                                                ",
"                                                                                                                                ",
"                                                                                                                                "
};