/* XPM */
static char *_68aed4223d54087e3e23e09e64ca8678JAF3MtKXYFeehRX[] = {
/* columns rows colors chars-per-pixel */
"64 64 229 2 ",
"   c #0D0D0C",
".  c #110F0D",
"X  c #15110D",
"o  c #1B150E",
"O  c #1E180F",
"+  c #1D1711",
"@  c #1D1E19",
"#  c #251B0F",
"$  c #231C14",
"%  c #2B2213",
"&  c #342513",
"*  c #392A16",
"=  c #382A16",
"-  c #282825",
";  c #353529",
":  c #383834",
">  c #253028",
",  c #412C14",
"<  c #4D3414",
"1  c #463217",
"2  c #563B15",
"3  c #5D3D15",
"4  c #533A1A",
"5  c #5B3E1A",
"6  c #523717",
"7  c #432F0D",
"8  c #613F18",
"9  c #473726",
"0  c #583D21",
"q  c #613B25",
"w  c #653E32",
"e  c #3A4233",
"r  c #5C401B",
"t  c #594016",
"y  c #624216",
"u  c #6A4515",
"i  c #65431B",
"p  c #6B451B",
"a  c #6D4A1C",
"s  c #6E4817",
"d  c #734A14",
"f  c #744D1C",
"g  c #7A4E1B",
"h  c #74491B",
"j  c #7E5215",
"k  c #76501D",
"l  c #7C521C",
"z  c #7F591B",
"x  c #534325",
"c  c #474538",
"v  c #544736",
"b  c #6D4A22",
"n  c #654721",
"m  c #744D21",
"M  c #7A4D26",
"N  c #765122",
"B  c #7C5322",
"V  c #7B5329",
"C  c #4A4B45",
"Z  c #514D45",
"A  c #4D5149",
"S  c #4A4F5B",
"D  c #535349",
"F  c #675447",
"G  c #6A6C65",
"H  c #6C736B",
"J  c #74736B",
"K  c #767466",
"L  c #6A7B73",
"P  c #737472",
"I  c #797679",
"U  c #696A5A",
"Y  c #8C5C16",
"T  c #83551C",
"R  c #86591C",
"E  c #8B5C1D",
"W  c #865617",
"Q  c #915E16",
"!  c #925F1D",
"~  c #8E611C",
"^  c #946115",
"/  c #9C6715",
"(  c #94621C",
")  c #9A661C",
"_  c #9D6A1D",
"`  c #9B6919",
"'  c #98620F",
"]  c #A46D16",
"[  c #A36D1C",
"{  c #A96D1E",
"}  c #A6711C",
"|  c #AB741D",
" . c #AE791C",
".. c #AA7316",
"X. c #B47B1D",
"o. c #B97F1C",
"O. c #B47917",
"+. c #845622",
"@. c #8A5722",
"#. c #855A22",
"$. c #8B5C22",
"%. c #8C5D2C",
"&. c #83582A",
"*. c #925D22",
"=. c #925E2B",
"-. c #8A5C32",
";. c #8D6123",
":. c #8F612B",
">. c #866029",
",. c #946423",
"<. c #9A6623",
"1. c #966924",
"2. c #9C6A23",
"3. c #93652B",
"4. c #9A652A",
"5. c #956929",
"6. c #9C6A29",
"7. c #966232",
"8. c #956A29",
"9. c #A26D22",
"0. c #A26D2A",
"q. c #A46927",
"w. c #A57123",
"e. c #AB7423",
"r. c #AE7823",
"t. c #A47229",
"y. c #AB742B",
"u. c #A97829",
"i. c #B37B23",
"p. c #B97F22",
"a. c #B47C29",
"s. c #B37823",
"d. c #A36D30",
"f. c #937A5A",
"g. c #987D5A",
"h. c #957A51",
"j. c #847968",
"k. c #967E68",
"l. c #BE8216",
"z. c #BC821D",
"x. c #BE891D",
"c. c #BC8322",
"v. c #BC842A",
"b. c #BA8427",
"n. c #BD8731",
"m. c #C68A16",
"M. c #CA8D15",
"N. c #C1861C",
"B. c #C58A1D",
"V. c #CA8E1D",
"C. c #C18616",
"Z. c #CE9016",
"A. c #CE911C",
"S. c #D29414",
"D. c #D2941C",
"F. c #DA9C1E",
"G. c #D7981A",
"H. c #C18622",
"J. c #C48A23",
"K. c #CA8E22",
"L. c #C38A2A",
"P. c #C78C2A",
"I. c #CD9123",
"U. c #CD9028",
"Y. c #D19422",
"T. c #D69925",
"R. c #DB9D24",
"E. c #D69A2B",
"W. c #DB9E2A",
"Q. c #D1942C",
"!. c #CE9433",
"~. c #DEA129",
"^. c #E6A725",
"/. c #9A805C",
"(. c #A5845B",
"). c #98846A",
"_. c #8D8B7A",
"`. c #938875",
"'. c #998B76",
"]. c #9A917A",
"[. c #A98969",
"{. c #AA9072",
"}. c #BDA57E",
"|. c #C5A47B",
" X c #958C87",
".X c #949284",
"XX c #9C9483",
"oX c #95968C",
"OX c #9C968A",
"+X c #949A8A",
"@X c #9B9A8C",
"#X c #9B9B92",
"$X c #999895",
"%X c #91928F",
"&X c #A39A85",
"*X c #A29B8C",
"=X c #A69885",
"-X c #B49C89",
";X c #A39D91",
":X c #A8989F",
">X c #BCAB8E",
",X c #BAA888",
"<X c #BDAD93",
"1X c #B7AB95",
"2X c #BDB19C",
"3X c #BFB791",
"4X c #AEA18E",
"5X c #BCBAA6",
"6X c #BDBBAC",
"7X c #B8B6A8",
"8X c #BBBCB2",
"9X c #9897A7",
"0X c #C4AC8C",
"qX c #C5AB84",
"wX c #C6B38D",
"eX c #C1AE92",
"rX c #C4B296",
"tX c #C3B49B",
"yX c #C8B99C",
"uX c #C3B7A3",
"iX c #C3BAA5",
"pX c #CABBA3",
"aX c #C3BBAA",
"sX c #CBBDAC",
"dX c #C4BCB1",
"fX c #D4BCA0",
"gX c #B3C1B0",
"hX c #C6C2B3",
"jX c #C3C1A9",
/* pixels */
"$XW m 3.2.} 9.3.<.2.<.6.6.0.6.6.w.[ w.9.[ 2.2.9.6.=.2.3.%.9.yXgX8XyX,.6.( } 2.6.[ 9.2.2.9.6.` t.{ 2.6.,.9.9.4.3.[ X.e.6.p.t.fX@X",
"N / ) U.V.K.K.I.K.P.c.c.o.X.r.} 2.6.6.q.6.0.6.6.[ i.p.i.2.p.s.7XdX2.W.E.^.^.<.[ 6.6.6.4.<.2.6.2.9.%.,.d.6.K.9. .P.} e.r.2.2.B @X",
"M K.J.Y.D.M.D.K.V.B.V.M.B.K.V.K.K.K.K.K.K.V.V.V.c.X.z.D.c.c.z.sX9.E.Y.K.V.I.V.T.T.V.B.I.N.K.I.V.D.v.D.] K.A.P.B.J.J.r.e.w.,.B gX",
"M V.B.K.B.Y.B.J.V.V.I.B.V.N.K.B.V.V.V.V.A.A.D.D.I. .K.D.v.K.e.iX` E.D.D.T.A.N.x.A.D.A.V.W.A.Z.A.D.I.I.N.K.M.L.o.V.T.} s.a.6.@.dX",
"! K.B.S.m.K.z.V.Y.V.J.J.p.L.s.s.c.c.H.P.J.K.K.V.K.J.I.N.s.z.r.6X4.A.D.M.A.A.A.I.V.K.J.K.J.K.J.K.c.I.| J.K.B.M.I.V.A.| i.p.6.,.aX",
"W V.P.K.K.N.p.p.K.K.z.K.O.c.X.X.B.z.N.B.V.V.V.V.A.M.H.D. .w.N.7X7._ i 7 & & & * 2 } V.V.V.I.V.J.J.A.o.H.D. .G.J.V.L.v.z.w.9.y.iX",
"M K.i.a.r.o.X.y.X. .c.O.c.X.c.c.c.i.X.p.p.J.P.J.K.V.2.Y * X X   .       .       . y z.P.z.L.X.X.X.J.t.c.t.6.w.d.c.[ s.N.w.a.<.iX",
"j c.s.o.H.O. .p.p.p.r.s.r.u.w.2.s.s.p.p.X.X. .8 + X               .   .     .   X f L.} X.r.w.r.e.r.r.r.s.r.X.X.s.2.r.p.s. .6.uX",
"g s.X. . .p./ i.r.[ e.r.r.[ _ <.2.w. .o.z.R X             . o : i N.w.L. .0.V.9.i.a.w.| r. .e.w.2.6.2.r.s.r.9.s.t.w.r.9.w.s.6.].",
"s a.X.} X.s.( ( ( ) _ p.X.s.u.( 6. .N.X.) X       # * +.<.9.,.6X6.K.w.X.X.9.l.e.s.e.| s.v.s.e.9.,.<.9.2.w.[ w.9.w.w.p.} } } 3.].",
"i ( X.i.X.i.r.u.) 6.<.) w. ...p.6.<.;.( <     * ,.9.3.j ,.,.3.pX4.z.9.] t.,.X.t.w.| r.| s.| _ 4.E <.2.( *.` ) <.Q 2.} ` [ w.j ].",
"T 9.i./ ) w.) ) ;.E 4._ { r.9.( E ,.,.3.X   . ! ,.[ @.a W $.a pX2.X.9.<.,.<.[ E ( ,.<.2.) 2.E +.( 4.@.#.z @.E $.#.@.<.E ;.;.(._.",
"a #.( ( 1.y.) 9.( ~ ! <.9.^ ,.$.l d f +.    # 9.) ( 4.( E W f iX( / 2.E 3.E ) ;.,.! ( 2.9.4.R #.$.f i f l t i T +.R W ( E E m ].",
"a $.] w.,.E ! l E #.f f p a a b p b m p     # R ,.( ) q.q.g a aX3._ _ 2.E 2.( R +.T #.R R R z h E 8 2 g B 5 r @.T N R R B N i ].",
"1X[.$.$.&.f l n l z h M +.d b [.9 C e c     X < < B p m T n `.J [.%.) ,.3.,.@.V +.+.&.@.E $.$.E m 6 < m m 0 4 N *.+.;.@.&.h b [.",
"@X+X-X&X+X;XsX7XaXaX6X8X6X6X6X#X$X%X;X;X-     : aXdXoX&X@XoXj.P L .XpXiXaXtX*XoX*X&XOX6XaXaXaXaXaX6X8XuXsX6XaXpXpX6X5XsX; : #X%X",
"` [ t.$.6.N ; C ;X4.-.| =.<.6.w.4.6.6.9.$.o     2.5.6.2.| J.K.I.w.2.{ w.[ 9.4.$X2.,.B.P.6.` ,.2.P.V.K.J.] 2.6.5.9.w.] X.c.v.| 6.",
"v.Y.J.} w.9.3.9 &X( } R.E.W.K.A.A.V.V.K.A.(     W A.B.J.B.A.K.V.V.P.P.s.v.w.t.OX9.Y.S.K.D.V.6.I.V.A.A.I.U.H.O.J.K.K.I.Y.F.D.K.K.",
"D.D.U.D.V.e.6.:.;X4.K.G.V.T.H.K.A.V.K.K.J.H.X   o V.Y.I.D.D.D.A.M.M.G.W.V.X.e.oX3.D.Z.!.G.V.9.A.Y.V.G.M.A.I.M.D.V.V.I.W.T.D.V.V.",
"B.M.D.c.K.D.) 7.$X,.D.R.~.M.D.A.R.T.K.c.X.z.3     * H.K.B.V.V.V.J.K.G.G.R.J.t.P 6.J.D.E.E.A.B.Y.K.l.K.I.K.K.I.V.Y.I.V.B.D.A.V.I.",
"J.o.z.X.V.U.9.[ 5X| B.J.V.s.V.I.D.A.H.c.X.J.U.%     < s.r.s.u.y.s.r.J.V.I. .6.P 2.H.D.D.J.U.R.A.H.K.K.o.z.N.I.V.V.I.K.K.I.A.V.I.",
"r.c.z.p.r.B.Y.,.yXQ.K.K.r.w.K.c.H.z.i.r.r.r.s.W X     & [ p. . .r.y.a.r.} e.y.j.! I.M.x.V.V.A.B.K.I.K.K.U.z.B.A.V.J.K.K.B.V.I.N.",
"H.w.w.V.z.s.P._ 3XB.M.S.o.Y.D.S.J.X. .e.r.r.X.c.5 X     X f i.s.s.e.s. .X.r.[ j.0.S.D.Y.A.I.D.V.N.z.o.o.X.z.J.A.A.V.V.V.D.M.V.N.",
" .O.c.} | C.c._ dXH.I.M.w.K. .N.| e.e.w.w.w.w._  .T +       * $.} } K.I.V.H.r.H %.A.J.i.X.p.z.r.s.r.s.s.i.p.z.B.X. .i.p.H.X. .r.",
"X. .s.p. .i.w.( aXR D.p.} G.O.B.| | w._ [ _ w.9.) ) ( *       X z r.O.H.[ w.9.G [ p.c.o.X.X.X.s.o.X.i.X. .i.i. . .o.| X.r.X.) s.",
"s.^ e.O.} X.H.) dX^ O.z.K.X._ c.} w._ [ 9.w.9.] 2.<.<.) i X       X < r.} w.2.G c.p.} r.w. .X.X.X.X.p.p.X.X.X.X.w.X. . .X.[ ( w.",
"_  .] } o.| W <.6X^ _ ]  .,.[ [ ` 2.( ,.! ( ,.( ,.,.( ~ ( R & .       X 2 ( Y XX) r.i.} [ ( [ | [ { | e.[ ] ] [ { X.Q | 2.r.W ] ",
"E w.} } ] 2.N B ].2.) W E $.*.E E ( ! *.R ! ( ( R R R E $.E W g # X       p T .X~ j T @.! E #.k ^ Q ! ) ! ) [ w.w.[ _ j ) l W ,.",
"R [ [ ] X.{ W @.; =.+.l E 8 3 8 W T T R T E R R E E E ;.~ $.E R k g , .   X f [.;.R R R a m R ! @.l l B l T T R k ^ ( } [ q.k k ",
"j ] [ _ ] ) f T 9 % M 5 8 M 1 @.B l f g g +.W R f g f f f l k f T +.a #     X _.B f f g l g h y a p p n a m m f p f <.l <.h f p ",
"( 1.e.i.E T @.|.G - @ 4 * & M h s s f N g l T B +.@.R @.+.@.@.$.,.*.;.E @     $ {.%.4._ 4.$.B m B N a p p h N B T T l a W z k W ",
"7X@X&X=X@X$XJ J P P -X*XoX*X*X6X7X5XiXiX5XuXuXtXuXiX5XiXiXiXaXjX5XhX5XuX:X@     : @XaXiXaXiXK hXpXtXiXaXaXaXsXiXaXaXaX7XpX6XiXpX",
"2.2.2.4.2.[ 9.9.2.6.2.2.4.2.6.6.3.[ q.6.6.H. .5XgXV x 6.w._ ..b.q.7.[ 6.1.R .     >.5.2.6.2.t.3._ d.9.5.w.C J &X4X~ ,.<.2.6._ 6.",
"D.A.A.D.T.W.R.W.T.D.I.A.A.A.A.A.I.q.4.z.N.a.4.2.sXW 5.6.1.>.0.S B.C.[ r.w.6.3     z.^.~.A.A.x.D.J.K.V.| 2.2.c 9X6.3.D.K.e.I.Y.N.",
"K.K.V.I.V.Y.A.A.D.A.A.I.V.K.K.A.K.K.N.9.b.x.e.q.pX} 1.x.T.V.x.G.V.K.K.J.X.P.H.X   t V.~.~.b.m.D.U.B.I.x.L.D.f oX%.D. .J.G.K.R.~.",
"V.I.K.Y.V.V.V.K.A.K.V.I.K.V.J.K.N.9.V.s._ z.b.3.sX( I.1.Y.n.Z.x.Y.P.I.H.x.m.K.o   . V.~.D.E.K.K.w.} 6.9.N.I.e ,Xt.6.D.K.c.M.R.T.",
"V.V.A.Z.D.Y.Y.V.A.V.V.V.B.B.B.V.Y.2.J.Y.x.c.0.w.hX;.T.S.K.M.Y.m.I.A.b.~.A.P.Z.2     ^.A.m.~.Y.x.R.D.b./ u.T.1.+X9.K.M.B.K.~.D.Y.",
"P.J.K.B.K.B.J.N.P.H.H.c.c.z.z.P.M.U.Y.H.N.A.z._ iX2.V.1.U.E.b.V m.Y.A.A.A.V.D. .    x.J.x.x.F.V.x.8.b.2.w.A 6.:X[ A.I.D.W.M.G.B.",
"N.B.V.V.V.B.B.J.J.z.N.H.N.N.N.K.A.A.J.K.D.A.b.~ S t.K.A.8.8._ ~.x.b.S.V.J.~.e.|     b.` } B.V.Y.I.>.t._ _ 5.0.+X_ v.S.m.Q.D.N.J.",
"H.H.N.J.H.J.N.c.c.z.c.c.H.H.H.N.c.c.H.m.x.I.v.; ;  .I.l.K.G.A.w.8. .e.P.x.e.` 5.    1.t.9.5.1.1.} G.D.8.B.~ 9.+X2.K.A.Y.V.B.B.z.",
"w.c.H.X.z.K.J.2.c.c.X.s.| p.c.c.i.V.N.z.c.c.c.v P X.D.J.] } t.9.9./.c.l.b.} N.1..   R 9.} } H._ } } w.6.2.` ,.*X3.P.I.V.$. .| o.",
"s. .c.z.K.c. .r.s.b. .b.v.b.O.H.B.z.L.H.z.N.J.3.L v.] b.v.b.} w.8.u.w...w.| 9.t.    >.} 6.;.w.[ ` n.[ w._ 9.5.5X) ^ V.p.w.K.) K.",
"e.e.w.s.b.s.w.} w.` t.w.[ | b.| r.| c.H.N.V.J.,.J 2.N.X.1.w._ 9.8.u.9.[ w.w.1.f     ; b.( w.[ 2.t.[ w.b.w.2.,.2X_ <.C.<.9.[ #.e.",
"2.[ w.) 2.s.r.2._ w.2.2.w.r.s.a.t.z.9.w.r.i.V.1.G _ ,.2.e.e.[ } [ 8.[ _ w._ J.+     B ,.( ;.;.,.~ 9.` } 9.) ;.yXE K.V.[ [ ( ) _ ",
"( w._ ,.( ..v.[ 4.( ,.6.^ 2.2.9.9.c.) 2.w.[ p.,.K $.E w.,.w.v.( } z _ _ 1._ 1     & 5.~ 1.B [ ,.1.8.( w.,.+.B 2X}.V.E ^ R @._ 9.",
"` ^ ) [ [ } | ) +.g E W $.,.,.E 2.[ ) 9.9.<.E l ).,.2.E #.~ T ( _ >.E ) N t     X z a E t ] R 2.z R R ~ B 5 i &X@.z.m / =.Y ( ^ ",
"E E R ( ) ! @.R b h f B $.@.R *.@.Y g V +.f u @.).3 1 z V R ] m #.B N E n .     < E #.l 4 r k R #.z N z i 1 k.].l ( m l i @.f #.",
"a T $.s f N n F A A Z & * 1 4 2 4 d 5 8 p i t f.j.(.r p t u i 5 t r s 2 +     # p f.f.f.f.f.t R T k a k 6 & k..Xg.f W q 2 N Y l ",
"pXyX2X2XaXXX_..X X{.`.).'.`.'. X].7XrX1XwX2X7X_.tXuX2X<XrXpXaXaXiXiX1X%     - aXdX*X=X&X'.].%X XU 7XK aXaX.X@XoX#XOXOXaXXX5XaX5X",
"( t.2.<.2.<.W $.<.J.J.B.K.A.Y.w.gXW @.7.w.4.} ` 9.9.2.0.[ 2.,.3.%.=       O <.[ ,.4.,.<.<.d.4.K I I 9 V 4.2.e.q.0.<.q.2.9.2.) 6.",
"H.c.z.J.z.J.X.H.K.G.K.K.J.V.A.[ 7X^ *.) c.} I.I.B.K.B.B.I.N.;.#         # c.K.J.K.| [ X.3.2. .K J x b 5.) ,.6.4.K.K.K.K.K.K.O.B.",
"H.z.H.z.P.z.N.H.Y.D.V.S.E.I.N.q.aX@.<.K.A.b.I.I.D.Y.Y.B.3 X .       o i B.V.V.K.Y.B.J.V.} w.p.J k.:.} I.V.V.Y.H.V.V.Y.N.I.B.B.K.",
"B.I.B.K.N.K.K.K.I.N.N.D.D.B.A.E C X X # O O o O O o X . .     . # T A.I.K.J.o.H. .D.D.Y.D.D.e.L dX$.v.D.F.Z.R.D.m.V.V.V.V.V.B.B.",
"Y.A.I.A.Y.C.K.K.A.N.U.N.z.U.D.N                         . X y Y.A.D.V.V.H.| { | 0.V.N.K.S.V.t.#XXX6.K.M.V.K.K.o.K.K.N.N.N.N.B.K.",
"V.V.K.N.J.H.H.H.v.c.P.B.c.c.z.).- + . X . X . X . . X O 2 { r.w.y.u.w.r.X.L.X.P.y.J.J.K.I.N.] =.$X;.P.V.N.B.D.B.z.N.z.p.H.N.N.N.",
"A.I.B.c.z.c. .i.l.c.b.V.H.N.I.:.oXe.7.K. .[ 9.U.K.X.P.s.s.} w.w.w.e.| | s.L. . .w.O.J.O.U.D.z.2.*X_ V.D.B.x.D.c.N.o.N.o.O.J.C.N.",
"K.X.b.p.w.| c.H.r.N.N.b.z.C.H.9.P 4.9.2.s.e.r.e.w.w.9.w.w.w.| r.y.w.w.w.e. .P.J.K. .9.w.{ V.V.,.].[ V.z.S.B.o.o.s.[ } c.c.z.C.Z.",
"9...e.w.b.s._ w.2.} c.J.c.B.c.<.G *.y.2.w.9.2.9.9.9.w.) 9.w.w.} [ 9._ w.[ [ | } <.[ { 9.w.m.A.)  X=.[ _ _ p.) } i.] X.| ..N.C.V.",
"q.6.9.9._ 9.9.w.c.V.X./ c. .u.( G <.9.9.s.[ r.) 9.[ [ [ ) r.[ [ 2.` ) ,.( 2.( <.[ [ [ 2.[ V.l.k ).~ X.^ p.[ ) ^ ! Q [ ( E ) ) ) ",
"9.( [ [ ` [ | _ z.z.z.H.z.o.} ( `.T 2._ [ 2.2.( 4.! ,.<.( 2.) 1.( ( ( 2.<.2.,.( [ <._ ^ ) p./ 0 j.T ! ,.( ! T ! _ [ *.*.E *.,.E ",
"T ) _ [ c.[ ^ ` [ 9.w.p.) [ @.&.'.g $.<.3.#.R N $.@.R #.z +.R R *.E *.E ! ( ( ` R %.E ^ R R T w ).k d l h +.E ) e.^ ( E W R l E ",
"h +.E E 2.W E 3.O.X.Q Q } Q W ^ ).a d E E @.*.*.T $.T #.j @.@.@.+.B B l @.T E E ! m k E m i 5 F g.p T k @.g *.E R h a g h r 2 u ",
"p 4 t i r i g 8 7 = 9 s i 5 0 k.j./.t d #.N R ,.l l B f l g +.T a a 3 < 2 5 a k W 8 8 8 8 3 < Z Z 9 4 p 5 q 4 5 i p 8 i n 3 n 3 ",
"2XpXrX<X0X0X<X<XqX1X1XqXqX<X1X0XrX0X<XeX-XhX2X1XrX>XrX>X<XtX,XrXwXrX>X2X2X2XtXrX0XeXqXqX1X0X|.eXrX>XqX,XwX>X,XqX<X0X0X1X1XeX0X,X"
};
