/* XPM */
static char *_c480f6c35f44dbfc97cc41665584e5aEU1lPVEvH3Ga95ZP[] = {
/* columns rows colors chars-per-pixel */
"16 16 2 1 ",
"  c #808080",
". c white",
/* pixels */
"                ",
" .............. ",
" .............. ",
" .............. ",
" .............. ",
" .............. ",
" .............. ",
" .............. ",
" .............. ",
" .............. ",
" .............. ",
" .............. ",
" .............. ",
" .............. ",
" .............. ",
"                "
};
