/* XPM */
static char *_f530bada6254e4df030f26ef9f428b0bTwyTidV7SjfxGyW[] = {
/* columns rows colors chars-per-pixel */
"64 64 232 2 ",
"   c #0D0C0D",
".  c #100E0F",
"X  c #130E12",
"o  c #180F18",
"O  c #151115",
"+  c #191117",
"@  c #1B111B",
"#  c #1C1C17",
"$  c #21161D",
"%  c #232319",
"&  c #1F1120",
"*  c #241424",
"=  c #2C162C",
"-  c #2E1A2E",
";  c #291A24",
":  c #331C2C",
">  c #341B34",
",  c #381D36",
"<  c #39163F",
"1  c #371B3A",
"2  c #3B1C3C",
"3  c #341638",
"4  c #2F1531",
"5  c #2C2628",
"6  c #33332A",
"7  c #3C223B",
"8  c #382736",
"9  c #383336",
"0  c #253028",
"q  c #401F3F",
"w  c #41233F",
"e  c #433A36",
"r  c #3A4233",
"t  c #454839",
"y  c #3D1644",
"u  c #3D1A43",
"i  c #3F1848",
"p  c #421D45",
"a  c #42174A",
"s  c #441C4C",
"d  c #4A1F4E",
"f  c #451653",
"g  c #471C52",
"h  c #4A1D55",
"j  c #4D1D5B",
"k  c #4A165B",
"l  c #511E5E",
"z  c #501F53",
"x  c #432244",
"c  c #46214B",
"v  c #4A234D",
"b  c #4A2845",
"n  c #542B4C",
"m  c #4C2254",
"M  c #4E215A",
"N  c #512455",
"B  c #532A55",
"V  c #52235D",
"C  c #55295C",
"Z  c #5A2C5C",
"A  c #58265D",
"S  c #5C335A",
"D  c #4B3F47",
"F  c #612F5C",
"G  c #62335B",
"H  c #4F1B62",
"J  c #4D1667",
"K  c #521E63",
"L  c #551D6B",
"P  c #5B1E6C",
"I  c #551C71",
"U  c #5B1D74",
"Y  c #5E1D78",
"T  c #611E74",
"R  c #681E7A",
"E  c #552364",
"W  c #592665",
"Q  c #572964",
"!  c #5B2B64",
"~  c #56226A",
"^  c #5A246B",
"/  c #5C296B",
"(  c #5B3162",
")  c #5D2472",
"_  c #5E2971",
"`  c #62256E",
"'  c #632A6C",
"]  c #6B2C6C",
"[  c #612B65",
"{  c #732E6D",
"}  c #6A3269",
"|  c #76336D",
" . c #7B306F",
".. c #642474",
"X. c #6A2675",
"o. c #642973",
"O. c #6B2974",
"+. c #652379",
"@. c #6C247B",
"#. c #6C297A",
"$. c #712576",
"%. c #732B75",
"&. c #7B2C74",
"*. c #73267B",
"=. c #7B267C",
"-. c #742A7A",
";. c #7C2C7B",
":. c #743274",
">. c #7C3174",
",. c #7D327B",
"<. c #73307B",
"1. c #4A4747",
"2. c #4D5149",
"3. c #4A4F5B",
"4. c #574A50",
"5. c #785B77",
"6. c #6A6A65",
"7. c #726D6C",
"8. c #6C736B",
"9. c #74726C",
"0. c #796877",
"q. c #6A7B73",
"w. c #737472",
"e. c #7A7478",
"r. c #696A5A",
"t. c #893B6C",
"y. c #832D76",
"u. c #82277D",
"i. c #842C7D",
"p. c #8A2D7E",
"a. c #852978",
"s. c #912E7A",
"d. c #833373",
"f. c #833B74",
"g. c #8A3975",
"h. c #83327C",
"j. c #8B327C",
"k. c #883778",
"l. c #92347B",
"z. c #963A7B",
"x. c #80687C",
"c. c #85777B",
"v. c #8B867D",
"b. c #711F82",
"n. c #6F2380",
"m. c #742581",
"M. c #7C2582",
"N. c #7D2A81",
"B. c #752A80",
"V. c #871D90",
"C. c #842583",
"Z. c #8A2784",
"A. c #852B82",
"S. c #8B2C83",
"D. c #8C258A",
"F. c #8C2A8A",
"G. c #86268A",
"H. c #922D84",
"J. c #91258B",
"K. c #932B89",
"L. c #9B2C8A",
"P. c #982B86",
"I. c #843282",
"U. c #8C3182",
"Y. c #933283",
"T. c #9B3588",
"R. c #972991",
"E. c #962D92",
"W. c #A2348C",
"Q. c #A8388B",
"!. c #AB3292",
"~. c #A63292",
"^. c #AF3094",
"/. c #C527A9",
"(. c #896884",
"). c #91668E",
"_. c #897783",
"`. c #997892",
"'. c #AE7EA0",
"]. c #B0428B",
"[. c #8D8686",
"{. c #928A86",
"}. c #91838C",
"|. c #948D8B",
" X c #938886",
".X c #96958C",
"XX c #9A958D",
"oX c #949B8A",
"OX c #9A9B8E",
"+X c #929383",
"@X c #9A8D92",
"#X c #978895",
"$X c #9B9594",
"%X c #9C9A93",
"&X c #989795",
"*X c #8E9A8E",
"=X c #A58A9A",
"-X c #B28C9C",
";X c #A79998",
":X c #B39B9C",
">X c #B5979B",
",X c #AFA79B",
"<X c #B3A29D",
"1X c #BBAC9D",
"2X c #BBB199",
"3X c #B49CA4",
"4X c #B89AA3",
"5X c #AC94A2",
"6X c #AFA2A2",
"7X c #B6A3A2",
"8X c #B6ABA5",
"9X c #BBABA6",
"0X c #BBA8AA",
"qX c #BDB4AB",
"wX c #BCBAAC",
"eX c #B7B9A8",
"rX c #BBAEB5",
"tX c #BEB5B0",
"yX c #BDBBB2",
"uX c #9897A7",
"iX c #C2ABAC",
"pX c #C2B3AC",
"aX c #C1B9AC",
"sX c #C4B5A3",
"dX c #C5AEB3",
"fX c #C2B3B3",
"gX c #C2B9B2",
"hX c #C5BAB9",
"jX c #B3C1B0",
"kX c #C2C2B3",
"lX c #C2C0AB",
"zX c #CAB3C0",
/* pixels */
"&Xv g / ! ^ W ^ W W ~ / ~ _ ^ ^ / ^ ^ ^ ^ ~ ^ ^ / W ^ Q W W iXyXyXqXQ / B ^ ^ / ~ ^ ~ ~ ^ / ~ / L / / V ~ ) E / ~ ..o.! #._ dXXX",
"v H K F.i.A.U.S.F.S.-.$.O.O.' ^ ~ ~ ^ / _ / ^ ^ E O.#.o.Q @.] wXgXE ~.W./.^.W L ^ / _ ~ ~ Q / ~ ^ W V _ / Z.^ / I.^ o.o.^ / v OX",
"N A.h.K.H.u.Y.S.i.u.S.S.=.S.A.U.S.p.U.S.I.i.S.i.*.{ $.J.#.-.$.gX~ Q.G.j.j.S.p.R.T.p.i.Y.;.S.Y.S.P.,.H.~ A.S.I.a.A.A.o.U ) W j jX",
"h S.d.p.h.K.a.k.j.i.j.i.i.*.F.M.A.A.p.F.S.S.H.K.Z.] j.F.I.A.' rXQ Q.K.F.W.H.d.>.H.H.S.i.Q.A.C.S.S.S.Y.u.U.S.I.X.j.R.! ..@.^ N gX",
"K p.d.H.a.A.$.p.H.A.A.I.$.h.O.O.-.-.;.I.i.A.A.A.S.A.Z.;.O.@.o.wXW S.Z.A.p.H.Z.K.i.j.A.U.i.S.A.A.h.U.^ C.U.A.Z.S.A.M.' X.@./ E wX",
"k C.I.Z.S.m.*.@.S.F.X.j.X.%.O.O.;.*.=.u.S.S.p.;.J.&.;.K.] ' ;.qX' i.F.j.p.*.u.F.S.S.u.u.A.S.A.A.i.S.@.i.Z.' K.A.Z.k.k.n.' ~ ..wX",
"m U.X.n.o.@.X.o.O.` -.X.$.X.#.$.-.X.X.#.-.;.A.A.G.j.W @.#.V &.fX! L.,.' N.+.} A.;.X.$.A.*.h.X.o.o.Z._ @.' / _ o.@.! +.B.' <.L wX",
"s &.o.+.d.] ` X.X.X.o.O.o.o./ / o.X.#.#.X.X.#.X.' @.^ ! ^ ` C rX^ a.Z.A.j.o.u.O...#.I.^ X.o.^ o.` o.) o.o.' ..X.+.^ ..X...) / 0X",
"s +...' o.#.H #.O.L / o.o.P K ~ ~ _ ' @.=.*.#.) [ m./ Q ^ ~ ! qX^ ;.' h..._ ;.) +.O.^ ' o.o.) ' ~ ^ ~ ) ) ..^ o._ ^ o.W / R / {.",
"p #...^ X.o.M E V E L #.X...' E ~ ) n.) E Z M / Q ~ H ) ~ ~ ~ wX^ Z.) ..) ) R ..+.) ) o.,.) ) ^ Q ~ ^ / o.~ ^ ^ _ ) #.~ L I Q [.",
"x K ) #.R +.o.o.K ^ ~ E / ` L @.^ Q N E K L ~ / E ~ Q g E H Q pX~ #.^ K _ l .._ ) ^ o.) +.) ~ ~ H K L l H ~ L E k / ~ L ~ L f {.",
"f L ..H H ) H K E i 1 i L o.~ E l E l ~ / E ~ l W L N u h C x dX^ X.~ ~ E W ~ M V E E ~ K E j B l ~ l m g M j j M m W j V V (.v.",
"b m V V Q o.J ~ E *   O ^ H E M s i c m ~ ~ L ~ H K ~ K E c s qXV E W j / j M E ~ j H ^ ~ ~ j M l c w i s 2 x h j M k j j M c  X",
"p M J ) l j M n M O     p x s s x c s s s m m M C H ~ I ~ g x yXQ E E W j / M k j h M h j m g p j u 1 & . + 2 j m c M k m c u }.",
"7Xx.E V C g s x g O     h i c ).9 1.9 e v j M 7 : m x s k w _.7.).E l E E H m M j h V M j l E j i 8 =     O , g H m V j E s s ).",
"%X.X=X@XoX%XfXeXtX9   . yXwXeXOX&X&X&X%X@X@X%XeXpXyXoX@XOXOX0.w.q.+XpXpXqXqX%X&X$XXXXXwXyXwXqXaXyXeX1.    7.wXpXgXwXeXgX6 6 %X*X",
"Q P / C ^ m 6 1.$Xs     > E / ^ / ~ / ^ ~ ~ / ^ ^ ^ / ^ / i.A.S.) ~ P ' W ^ ^ &X/ E d.I./ V C ^ A.I.O   . ^ / / ~ / ~ o.i.h.^ ~ ",
",.J.M.^ ^ ^ / 8 XXE .   @ !.F.G.S.p.p.S.S.S.S.p.p.S.y.i.y.S.p.S.i.,.F...I./ ) .XL Y.K.F.K.A.^ K.Z.$.    - ;.^ A.S.S.S.L.K.K.Z.U.",
"H.S.F.K.C.) ^ Q $X^ $   . Y.d.U.p.p.S.U.A.j.j.S.P.W.H.K.K.S.K.Z.p.p.L.~.A.' ...X~ j.p.T.P.p.^ Z.H.=     ' H.=.P.S.i.Y.Q.W.Y.i.j.",
"i.i.H.d.F.Z.V / &XW N     2 Y.Z.Q.L.U.-.X.$.i.S.S.U.i.U.y.p.p.j.h.j.J.L.Q.S.o.w.^ A.F.W.W.Z.i.K.h.    + i.U.H.p.P.U.;.C.H.Z.C.H.",
"h.@.*.] h.F./ / eXP i..   X C.U.Z.K.A.@.o.;.Y.F.N.@.+.+...#.o.o...' A.i.T.W ^ w.^ N.P.S.j.S.Q.S.p     p *.;.Y.A.i.F.S.A.Y.S.A.S.",
"..@.*.@.' u.J.C pXE.p.=     O.>.a.*.o.....o.o.o.$.o.' ' o.#.o.o.+.o.O.O.W O.@.9.C l.p.&.h.S.Z.i.+   . S.Y.*.u.S.j.j.U.i.i.p.l.;.",
"M./ o.M.$.o.G.E 2X=.p.W     = P.;.X.` o.o.o.o.X...) _ ....@.....O.o...o.o.' P 9./ J.K.Y.S.Z.D.u.    $ X.X.$.i.C.S.C.S.Z.S.C.Z.*.",
"] ' *.W ' m.N.C yXu.D.p.O   X &./ / ' ' ^ / ' ^ ' o.^ o./ ^ _ Q / ^ A.K.C.h...8.E Z.A.O.O.n.*.2     M o.O.#.%.A.' ` O.%.;.X.` o.",
"T ..X.+...X.^ V tXN G.{ 2     p ..^ ^ P ~ E ^ ~ K E K E K ~ K E o.) ..i.W ^ ^ 6.~ %.m.@...o.^ X   X X.......X.o...R ` ..' R V ..",
"X.N ` ..^ T m.K gXH T -.G.X   o ^ ^ K ~ ^ / ~ L ~ W E H E E E ~ N ^ ..;.^ U E 6.n.X.~ o.` ..2     > @.X.T ..X...' @.' ^ X.P V / ",
"~ T ~ W R ^ m E qXH A K U O     Q W l V M E M E K K l l l l E l ^ ^ K W Q j j }.l ..+.I L j X   X K o.) ~ K K ~ K T z ` Q +.h L ",
"j ^ L ^ L W v m `.^ V h j -     h H j ~ k H H H M m j M j M h j m j V K j E m {.V s m M j u     @ k H K H H ~ ) ^ ^ ~ d K g g H ",
"h L L L T I k l 6 L m m H 3     4 h f j g j h j j M j H M l j j v g m l k f h (.M j k j u o     p g c m g g j h s H j I P U c g ",
"s K W E J E s g 8 % m 1 y g     o g s g g m g j g i s s s g s s a l p p x 8 8 }.m s s c g     X s y y s s s c s x c ~ c L p c x ",
"H W ) @.l s j '.r.0 # u 5 $ X     i s m g m g g M j h j m j M M ~ K K K E 2 0X}.`.Q ^ P 1     > N s i i p s m h h f g c h g g g ",
"eXOX@X#X$X%X7.w.w.7.=X#X.X#X9     ;XwXqXqX9XqXqXqXqXqXyXtXqXgXgXeXhXeXqXtXyXgX&XOXOXwXwX#   . yXpXqXwXyXtXqXgXpXgXtXgXeXiXeXqXfX",
"/ ~ ^ ~ ^ ~ ^ ^ ^ / ^ Q Q / m .   3 ) ~ / ;.U eXjXN e / U Z W { P ' ~ Q Q ! E ! 4.S ! ,     * Q Z ' ^ W ) 1.w.XX=XB C Q ^ ^ ~ / ",
"F.S.p.H.L.!.!.W.L.P.S.F.F.S.Z..   o Q  .;.:.~ / dXh S ^ Z C o.3.t.t.^ ) ) ^ A.W p.j.^.$   . | p.j.l.j.` ! L t uX^ ! P.G.) K.F.;.",
"j.S.i.H.U.Y.S.S.H.F.Z.S.p.S.S.O   . y.) :.&.) ) aXF Z g.L.p.t.P.s.Y.j.j.O.Y.l.l.Q.l.}     : d.T.U.t.H.t.j.Y.x &X! S.U j.K.S.Q.!.",
"A.j.j.F.i.S.i.S.S.S.A.U.A.j.A.>     ] U W ;.-.^ dXZ U.Z Y.} n } H.j.z.f.t.d.j.Y.g.g.:     f.l.j.` / / ! f.Y.r =X/ ~ Y.S.>.a.!.W.",
"p.S.p.p.P.Y.S.S.S.S.A.i.a.;.a.]     * F.t.>./ / hXB W.s.j.X   + l.s.j.].j.j.l.g.j.l.+   . Q.z.t.!.z.+.G ] Q.E oX~ U.C.a.S.!.Y.J.",
"U.i.S.i.U.i.i.;.j.,.;.;.;.%.;.h.@   . %.y.l.{ L aXW S.S &.      F l.j.l.H.d.z.d.l.!..   $ j.L.j.t.~ O.( / 2.^ 5X^ p.j.P.Q.p.R.=.",
";.a.I.p.A.u.;.A.;.;.&.;.;.&.i.i.n     , Y.Y.:.B 3._ j.p.:       ; g.l.p.l.Q.` ..j.b     : =.j.K.l.S ! G ^ ^ ` oXV k.p.i.T.S.&.i.",
"-.;.;.i.;.h.;.-.-.$.$.;.;.;.;.;.:.X   X &.K.N.6 6 ` P.&.X         W / k.j.' A Z ` *     Q ! F Z / P.Y.! ;.N ^ oX^ S.G.K.Z.A.u.%.",
"! -.h.| >.C.B.! ;.B.o.o.' %.>.%. .,     , ;.;.1.w.) p.g..   X     8 f.:.f.! =.Z ! O   . / ^ M.Z ! ) / ! Z E W $XQ C.F.C.C P ` O.",
"....-.$.;.;.......%.) -.,.;...;.M.' X   . O.;.E q.B.F G     p X   X [ W ` ^ ! ' /     $ ! B ! ! Z k.Q ' ! / Q eX~ M A.#.~ G.V G.",
"..) ) o.-.+.) ^ / E / ^ ~ ^ B.) ..` u     = i.C 7./ *.2     Z -     2 ! ^ / S ^ B     V V ' ^ Q [ ! ' %.! ! V 9XE K &.W ~ L S ^ ",
"/ L ) E Q ..o.! ~ _ ^ ~ ) ) ..B./ N./ O     $.Q 7.L A o     Q W .   + ! ' Z h.! -     E E C N E Z ! A ^ ! Q Q 0XM V.i.~ L V K L ",
"N ^ L C W I B.E Q E E / l W / ^ ^ ;.E p     u E 7.V x     O ;.Z $     q Z Z i.! X   . V E n L Z C ! V / M B m 8X=XG.N E h N ~ ~ ",
"E j E ~ L L ^ K j f j g M V E j L E K ^     O h _.E @     2 n V h     X v m N ,     @ M 7 J N W M h m l m u u |.N $.v k ~ k N H ",
"l j j j ~ j M M s s s m M j f K H g s M X     l _.*     + m H v M @     @ m x .     c s 8 7 p h M d v m u - (.{.h N c g u N b N ",
"p h V u s g s 4.2.2.1.; ; - 1 1 8 a 2 < =     D 0.O     > u u u , > X   X * *     5 0.5.0.5., z h v x v 3 * 0.|.5.s k p 3 g k f ",
"pXiX8X8XqX X[.|.}.`._.c._.v.v.#X{.rX1X6X1X.   5 r.    5 9XpXpXqXpXqXc..   O O   O  X}.#X X[.|.{.r.8X8.tXqX.X.XoX$X|.$XtX|.qXhXeX",
"E / W E ~ W j m C N.u.u.F.G.K.^ lXf M / W O   X     X m ~ ^ E Q Q ( E *         - ^ ^ W Q ..~ 9.e.e.8 M / ~ ..~ / ~ / Q W W E W ",
";.*.@.i.N.N...N.j.K.Y.k.d.i.p.^ jXh M W d.=       . > i.Y.;.k.^ S.Z.K.%.      X j.o.~ ..C / U w.w.8 b ( W E ^ Q G.F.Z.F.S.F.Y =.",
"h.&.h.%.h.&.&.,.F.J.=.J.~.Y.y.W rXM ~ Z.d.[       + K.G.Z.K.S.Z.i.Y.u.U.;     , S.=.k.A.Q ' +.7.x.Q ~ F.u.j.K.i.U.i.Y.$.U.i.y.i.",
"a.Y.u.S.%.U.U.p.U.>.&.K.K.;.S.^ zXj ^ F.p.H.@   X N T j.p.S.Y.i.i.y.S.Y.A.2 > %...D.s.K.J.J.T q.hXC k.S.T.p.Q.H.u.i.i.p.i.p.i.;.",
"K.Z.S.S.F.=.Z.S.F.=.U.&.| Y.J.Q oX^ Q Z A.K.Q [ O.X.I.U.H.p.S.H.S.H.S.i.;.o.~ ^ / K.>.U.H.i._ $X|.! S.a.u.S.D.X.Z.S.*.=.=.*.;.F.",
"A.S.S.;.y.;.;.;.h.&.F.N.,.&.&.=XoX) W ^ ..G.^ C.' ^ ^ o.~ ` o.^ o.+.) ....I.@.I...u.j.S.F.d.E ~ &XV I.F.y.j.D.y.%.-.*.$.;.;.$.a.",
"U.p.i.>.%.,.o.X.R | %.C.;.&.Y.Q .X) / S.] ! / F.S.T I...X.) ) ) ' ..^ / O.;...' ) ..i.' F.Z.d.~ $X^ C.S.u.$.D.;.*.*.-.X.X.u.*.*.",
"A.' :.%.' / $.,.X.N.;.%.$.;.&.~ 9.^ ^ ! ....) ) ) _ ) ^ ) ^ U o.) ) ^ ^ o.o.A.A.C.o.' ) I i.p.W +XW C.&.Z.M.%.X.#.E ^ @.*.=.=.C.",
"^ U ) ) m...Q ) ! Q ;.N.-.A.*.W 8.E o.Q ^ ^ / / ^ ~ ^ E ^ ` / ^ ~ ^ W ^ ~ W ^ L Q ~ K ) ^ =.Z.K [.K L ~ E X.E L %.K O.^ P $.$.=.",
"/ ^ ^ ~ ~ ~ ) ) m.G.O.l :.` } K 9.E ~ ~ +.L o.K ~ ~ E ~ K O.~ ~ / Q E ~ H W E E E L L W ^ C.$.s _.k +.N @.^ K l N k W C N K K V ",
"L E ~ ^ V W L K $.O.$.=.*.@.L E c.h ~ ~ L ~ ~ M E H E E H W H E V j V E ~ W K V L L E j E X.l 7 c.h k K H K m V L L K K l l E l ",
"g ~ E K -.~ M W ~ ~ ) #.H L K N _.g V W ~ N m v M M m M g M m j M j H H H H H ~ M V j H l h h v (.s u g g k j H o.V V h h m g j ",
"s j l j W k M W ` ..l h ^ z v l x.p p k k j K K j M k M f j j j m h m g m h k j j c v j s y 2 4.5.u g s V g j j j p p s a 2 , i ",
"a , 2 2 7 2 s u ; ; > i u 1 2 x.e.x.7 a C c k E g c m i d d g h c c 1 - , 1 x x h u x 2 < 2 : 1.1.8 1 s 1 u 1 2 y p < u p 3 u y ",
"1XfX9X7X4X:X<X<X>X4X6X3X>X7X7X4X4X4X<X3X;XkX8X,X0X7X7X<X<X9X:X0X4X0X:X8X8X7X0X0X:X4X5X-X5X4X-X4X0X<X:X-X4X:X:X>X:X4X3X<X<XiX:X;X"
};
